ISO-10303-21;
HEADER;
FILE_DESCRIPTION(('Open CASCADE Model'),'2;1');
FILE_NAME('Open CASCADE Shape Model','2026-09-28T21:59:32',('Author'),(
    'Open CASCADE'),'Open CASCADE STEP processor 7.9','Open CASCADE 7.9'
  ,'Unknown');
FILE_SCHEMA(('AUTOMOTIVE_DESIGN { 1 0 10303 214 1 1 1 1 }'));
ENDSEC;
DATA;
#1 = APPLICATION_PROTOCOL_DEFINITION('international standard',
  'automotive_design',2000,#2);
#2 = APPLICATION_CONTEXT(
  'core data for automotive mechanical design processes');
#3 = SHAPE_DEFINITION_REPRESENTATION(#4,#10);
#4 = PRODUCT_DEFINITION_SHAPE('','',#5);
#5 = PRODUCT_DEFINITION('design','',#6,#9);
#6 = PRODUCT_DEFINITION_FORMATION('','',#7);
#7 = PRODUCT('Open CASCADE STEP translator 7.9 1',
  'Open CASCADE STEP translator 7.9 1','',(#8));
#8 = PRODUCT_CONTEXT('',#2,'mechanical');
#9 = PRODUCT_DEFINITION_CONTEXT('part definition',#2,'design');
#10 = ADVANCED_BREP_SHAPE_REPRESENTATION('',(#11,#15),#1064);
#11 = AXIS2_PLACEMENT_3D('',#12,#13,#14);
#12 = CARTESIAN_POINT('',(0.,0.,0.));
#13 = DIRECTION('',(0.,0.,1.));
#14 = DIRECTION('',(1.,0.,-0.));
#15 = MANIFOLD_SOLID_BREP('',#16);
#16 = CLOSED_SHELL('',(#17,#320,#864,#985,#1059));
#17 = ADVANCED_FACE('',(#18),#92,.T.);
#18 = FACE_BOUND('',#19,.T.);
#19 = EDGE_LOOP('',(#20,#240));
#20 = ORIENTED_EDGE('',*,*,#21,.T.);
#21 = EDGE_CURVE('',#22,#24,#26,.T.);
#22 = VERTEX_POINT('',#23);
#23 = CARTESIAN_POINT('',(0.,0.,0.));
#24 = VERTEX_POINT('',#25);
#25 = CARTESIAN_POINT('',(60.,0.,0.));
#26 = SURFACE_CURVE('',#27,(#91,#166),.PCURVE_S1.);
#27 = B_SPLINE_CURVE_WITH_KNOTS('',3,(#28,#29,#30,#31,#32,#33,#34,#35,
    #36,#37,#38,#39,#40,#41,#42,#43,#44,#45,#46,#47,#48,#49,#50,#51,#52,
    #53,#54,#55,#56,#57,#58,#59,#60,#61,#62,#63,#64,#65,#66,#67,#68,#69,
    #70,#71,#72,#73,#74,#75,#76,#77,#78,#79,#80,#81,#82,#83,#84,#85,#86,
    #87,#88,#89,#90),.UNSPECIFIED.,.F.,.F.,(4,1,1,1,1,1,1,1,1,1,1,1,1,1,
    1,1,1,1,1,1,1,1,1,1,1,1,1,1,1,1,1,1,1,1,1,1,1,1,1,1,1,1,1,1,1,1,1,1,
    1,1,1,1,1,1,1,1,1,1,1,1,4),(0.,4.535786426562E-02,0.17343793914,
    0.383309129877,0.674340218142,1.045708857361,1.49638047848,
    2.025106720027,2.630427642848,3.310675368184,4.063978565599,
    4.888267601739,5.781280269121,6.740568050339,7.763502886526,
    8.847284424126,9.988947715962,11.185371353135,12.433286004129,
    13.729283337138,15.069825301057,16.451253740063,17.869800316086,
    19.321596712981,20.802685095677,22.309028797143,23.836523205577,
    25.381006823894,26.938272473248,28.504078612111,30.074160742177,
    31.644242872243,33.210049011106,34.76731466046,36.311798278777,
    37.839292687211,39.345636388677,40.826724771373,42.278521168268,
    43.697067744291,45.078496183297,46.419038147217,47.715035480225,
    48.962950131219,50.159373768392,51.301037060228,52.384818597828,
    53.407753434015,54.367041215233,55.260053882615,56.084342918755,
    56.83764611617,57.517893841506,58.123214764327,58.651941005874,
    59.102612626993,59.473981266212,59.765012354477,59.974883545214,
    60.102963620089,60.148321484354),.UNSPECIFIED.);
#28 = CARTESIAN_POINT('',(0.,0.,0.));
#29 = CARTESIAN_POINT('',(1.339830425225E-02,-5.085357155052E-03,
    -5.085357155052E-03));
#30 = CARTESIAN_POINT('',(6.582221496206E-02,-2.231003389612E-02,
    -2.231003389612E-02));
#31 = CARTESIAN_POINT('',(0.191235220524,-4.264359619014E-02,
    -4.264359619014E-02));
#32 = CARTESIAN_POINT('',(0.395328073858,-7.510033274853E-02,
    -7.510033274853E-02));
#33 = CARTESIAN_POINT('',(0.681900394598,-0.111070250099,-0.111070250099
    ));
#34 = CARTESIAN_POINT('',(1.048153203837,-0.152609527004,-0.152609527004
    ));
#35 = CARTESIAN_POINT('',(1.49395876066,-0.197546214197,-0.197546214197)
  );
#36 = CARTESIAN_POINT('',(2.017793936246,-0.245663926765,-0.245663926765
    ));
#37 = CARTESIAN_POINT('',(2.618340362189,-0.296174035711,-0.296174035711
    ));
#38 = CARTESIAN_POINT('',(3.293919566057,-0.348569334315,-0.348569334315
    ));
#39 = CARTESIAN_POINT('',(4.042694494117,-0.402303702011,-0.402303702011
    ));
#40 = CARTESIAN_POINT('',(4.862610850265,-0.456882318485,-0.456882318485
    ));
#41 = CARTESIAN_POINT('',(5.751423713811,-0.51182435315,-0.51182435315)
  );
#42 = CARTESIAN_POINT('',(6.706697442871,-0.566670129209,-0.566670129209
    ));
#43 = CARTESIAN_POINT('',(7.725814455823,-0.620976754554,-0.620976754554
    ));
#44 = CARTESIAN_POINT('',(8.805981879338,-0.67431875012,-0.67431875012)
  );
#45 = CARTESIAN_POINT('',(9.944239430439,-0.726288113286,-0.726288113286
    ));
#46 = CARTESIAN_POINT('',(11.137467508571,-0.776495163645,
    -0.776495163645));
#47 = CARTESIAN_POINT('',(12.382395782951,-0.82456955356,-0.82456955356)
  );
#48 = CARTESIAN_POINT('',(13.675612166606,-0.870161475492,
    -0.870161475492));
#49 = CARTESIAN_POINT('',(15.013572180558,-0.912942949556,
    -0.912942949556));
#50 = CARTESIAN_POINT('',(16.392608676425,-0.952609145762,
    -0.952609145762));
#51 = CARTESIAN_POINT('',(17.808941893792,-0.988879693768,
    -0.988879693768));
#52 = CARTESIAN_POINT('',(19.2586898248,-1.021499946718,-1.021499946718)
  );
#53 = CARTESIAN_POINT('',(20.737878858089,-1.050242171446,
    -1.050242171446));
#54 = CARTESIAN_POINT('',(22.242454673152,-1.074906643005,
    -1.074906643005));
#55 = CARTESIAN_POINT('',(23.768293355449,-1.095322625479,
    -1.095322625479));
#56 = CARTESIAN_POINT('',(25.31121270193,-1.111349224551,-1.111349224551
    ));
#57 = CARTESIAN_POINT('',(26.866983686092,-1.12287610006,-1.12287610006)
  );
#58 = CARTESIAN_POINT('',(28.431342051206,-1.129824029398,
    -1.129824029398));
#59 = CARTESIAN_POINT('',(30.,-1.132145314756,-1.132145314756));
#60 = CARTESIAN_POINT('',(31.568657948794,-1.129824029398,
    -1.129824029398));
#61 = CARTESIAN_POINT('',(33.133016313908,-1.12287610006,-1.12287610006)
  );
#62 = CARTESIAN_POINT('',(34.68878729807,-1.111349224551,-1.111349224551
    ));
#63 = CARTESIAN_POINT('',(36.231706644551,-1.095322625479,
    -1.095322625479));
#64 = CARTESIAN_POINT('',(37.757545326848,-1.074906643005,
    -1.074906643005));
#65 = CARTESIAN_POINT('',(39.262121141911,-1.050242171446,
    -1.050242171446));
#66 = CARTESIAN_POINT('',(40.7413101752,-1.021499946718,-1.021499946718)
  );
#67 = CARTESIAN_POINT('',(42.191058106208,-0.988879693768,
    -0.988879693768));
#68 = CARTESIAN_POINT('',(43.607391323575,-0.952609145762,
    -0.952609145762));
#69 = CARTESIAN_POINT('',(44.986427819442,-0.912942949556,
    -0.912942949556));
#70 = CARTESIAN_POINT('',(46.324387833394,-0.870161475492,
    -0.870161475492));
#71 = CARTESIAN_POINT('',(47.617604217049,-0.82456955356,-0.82456955356)
  );
#72 = CARTESIAN_POINT('',(48.862532491429,-0.776495163645,
    -0.776495163645));
#73 = CARTESIAN_POINT('',(50.055760569561,-0.726288113286,
    -0.726288113286));
#74 = CARTESIAN_POINT('',(51.194018120662,-0.67431875012,-0.67431875012)
  );
#75 = CARTESIAN_POINT('',(52.274185544177,-0.620976754554,
    -0.620976754554));
#76 = CARTESIAN_POINT('',(53.293302557129,-0.566670129209,
    -0.566670129209));
#77 = CARTESIAN_POINT('',(54.248576286189,-0.51182435315,-0.51182435315)
  );
#78 = CARTESIAN_POINT('',(55.137389149735,-0.456882318485,
    -0.456882318485));
#79 = CARTESIAN_POINT('',(55.957305505883,-0.402303702011,
    -0.402303702011));
#80 = CARTESIAN_POINT('',(56.706080433943,-0.348569334315,
    -0.348569334315));
#81 = CARTESIAN_POINT('',(57.381659637811,-0.296174035711,
    -0.296174035711));
#82 = CARTESIAN_POINT('',(57.982206063754,-0.245663926765,
    -0.245663926765));
#83 = CARTESIAN_POINT('',(58.50604123934,-0.197546214197,-0.197546214197
    ));
#84 = CARTESIAN_POINT('',(58.951846796163,-0.152609527004,
    -0.152609527004));
#85 = CARTESIAN_POINT('',(59.318099605402,-0.111070250099,
    -0.111070250099));
#86 = CARTESIAN_POINT('',(59.604671926142,-7.510033274853E-02,
    -7.510033274853E-02));
#87 = CARTESIAN_POINT('',(59.808764779476,-4.264359619014E-02,
    -4.264359619014E-02));
#88 = CARTESIAN_POINT('',(59.934177785038,-2.231003389612E-02,
    -2.231003389612E-02));
#89 = CARTESIAN_POINT('',(59.986601695748,-5.085357155052E-03,
    -5.085357155052E-03));
#90 = CARTESIAN_POINT('',(60.,0.,0.));
#91 = PCURVE('',#92,#160);
#92 = SURFACE_OF_REVOLUTION('',#93,#157);
#93 = B_SPLINE_CURVE_WITH_KNOTS('',3,(#94,#95,#96,#97,#98,#99,#100,#101,
    #102,#103,#104,#105,#106,#107,#108,#109,#110,#111,#112,#113,#114,
    #115,#116,#117,#118,#119,#120,#121,#122,#123,#124,#125,#126,#127,
    #128,#129,#130,#131,#132,#133,#134,#135,#136,#137,#138,#139,#140,
    #141,#142,#143,#144,#145,#146,#147,#148,#149,#150,#151,#152,#153,
    #154,#155,#156),.UNSPECIFIED.,.F.,.F.,(4,1,1,1,1,1,1,1,1,1,1,1,1,1,1
    ,1,1,1,1,1,1,1,1,1,1,1,1,1,1,1,1,1,1,1,1,1,1,1,1,1,1,1,1,1,1,1,1,1,1
    ,1,1,1,1,1,1,1,1,1,1,1,4),(0.,4.535786426562E-02,0.17343793914,
    0.383309129877,0.674340218142,1.045708857361,1.49638047848,
    2.025106720027,2.630427642848,3.310675368184,4.063978565599,
    4.888267601739,5.781280269121,6.740568050339,7.763502886526,
    8.847284424126,9.988947715962,11.185371353135,12.433286004129,
    13.729283337138,15.069825301057,16.451253740063,17.869800316086,
    19.321596712981,20.802685095677,22.309028797143,23.836523205577,
    25.381006823894,26.938272473248,28.504078612111,30.074160742177,
    31.644242872243,33.210049011106,34.76731466046,36.311798278777,
    37.839292687211,39.345636388677,40.826724771373,42.278521168268,
    43.697067744291,45.078496183297,46.419038147217,47.715035480225,
    48.962950131219,50.159373768392,51.301037060228,52.384818597828,
    53.407753434015,54.367041215233,55.260053882615,56.084342918755,
    56.83764611617,57.517893841506,58.123214764327,58.651941005874,
    59.102612626993,59.473981266212,59.765012354477,59.974883545214,
    60.102963620089,60.148321484354),.UNSPECIFIED.);
#94 = CARTESIAN_POINT('',(0.,0.,0.));
#95 = CARTESIAN_POINT('',(1.339830425225E-02,5.085357155052E-03,
    5.085357155052E-03));
#96 = CARTESIAN_POINT('',(6.582221496206E-02,2.231003389612E-02,
    2.231003389612E-02));
#97 = CARTESIAN_POINT('',(0.191235220524,4.264359619014E-02,
    4.264359619014E-02));
#98 = CARTESIAN_POINT('',(0.395328073858,7.510033274853E-02,
    7.510033274853E-02));
#99 = CARTESIAN_POINT('',(0.681900394598,0.111070250099,0.111070250099)
  );
#100 = CARTESIAN_POINT('',(1.048153203837,0.152609527004,0.152609527004)
  );
#101 = CARTESIAN_POINT('',(1.49395876066,0.197546214197,0.197546214197)
  );
#102 = CARTESIAN_POINT('',(2.017793936246,0.245663926765,0.245663926765)
  );
#103 = CARTESIAN_POINT('',(2.618340362189,0.296174035711,0.296174035711)
  );
#104 = CARTESIAN_POINT('',(3.293919566057,0.348569334315,0.348569334315)
  );
#105 = CARTESIAN_POINT('',(4.042694494117,0.402303702011,0.402303702011)
  );
#106 = CARTESIAN_POINT('',(4.862610850265,0.456882318485,0.456882318485)
  );
#107 = CARTESIAN_POINT('',(5.751423713811,0.51182435315,0.51182435315));
#108 = CARTESIAN_POINT('',(6.706697442871,0.566670129209,0.566670129209)
  );
#109 = CARTESIAN_POINT('',(7.725814455823,0.620976754554,0.620976754554)
  );
#110 = CARTESIAN_POINT('',(8.805981879338,0.67431875012,0.67431875012));
#111 = CARTESIAN_POINT('',(9.944239430439,0.726288113286,0.726288113286)
  );
#112 = CARTESIAN_POINT('',(11.137467508571,0.776495163645,0.776495163645
    ));
#113 = CARTESIAN_POINT('',(12.382395782951,0.82456955356,0.82456955356)
  );
#114 = CARTESIAN_POINT('',(13.675612166606,0.870161475492,0.870161475492
    ));
#115 = CARTESIAN_POINT('',(15.013572180558,0.912942949556,0.912942949556
    ));
#116 = CARTESIAN_POINT('',(16.392608676425,0.952609145762,0.952609145762
    ));
#117 = CARTESIAN_POINT('',(17.808941893792,0.988879693768,0.988879693768
    ));
#118 = CARTESIAN_POINT('',(19.2586898248,1.021499946718,1.021499946718)
  );
#119 = CARTESIAN_POINT('',(20.737878858089,1.050242171446,1.050242171446
    ));
#120 = CARTESIAN_POINT('',(22.242454673152,1.074906643005,1.074906643005
    ));
#121 = CARTESIAN_POINT('',(23.768293355449,1.095322625479,1.095322625479
    ));
#122 = CARTESIAN_POINT('',(25.31121270193,1.111349224551,1.111349224551)
  );
#123 = CARTESIAN_POINT('',(26.866983686092,1.12287610006,1.12287610006)
  );
#124 = CARTESIAN_POINT('',(28.431342051206,1.129824029398,1.129824029398
    ));
#125 = CARTESIAN_POINT('',(30.,1.132145314756,1.132145314756));
#126 = CARTESIAN_POINT('',(31.568657948794,1.129824029398,1.129824029398
    ));
#127 = CARTESIAN_POINT('',(33.133016313908,1.12287610006,1.12287610006)
  );
#128 = CARTESIAN_POINT('',(34.68878729807,1.111349224551,1.111349224551)
  );
#129 = CARTESIAN_POINT('',(36.231706644551,1.095322625479,1.095322625479
    ));
#130 = CARTESIAN_POINT('',(37.757545326848,1.074906643005,1.074906643005
    ));
#131 = CARTESIAN_POINT('',(39.262121141911,1.050242171446,1.050242171446
    ));
#132 = CARTESIAN_POINT('',(40.7413101752,1.021499946718,1.021499946718)
  );
#133 = CARTESIAN_POINT('',(42.191058106208,0.988879693768,0.988879693768
    ));
#134 = CARTESIAN_POINT('',(43.607391323575,0.952609145762,0.952609145762
    ));
#135 = CARTESIAN_POINT('',(44.986427819442,0.912942949556,0.912942949556
    ));
#136 = CARTESIAN_POINT('',(46.324387833394,0.870161475492,0.870161475492
    ));
#137 = CARTESIAN_POINT('',(47.617604217049,0.82456955356,0.82456955356)
  );
#138 = CARTESIAN_POINT('',(48.862532491429,0.776495163645,0.776495163645
    ));
#139 = CARTESIAN_POINT('',(50.055760569561,0.726288113286,0.726288113286
    ));
#140 = CARTESIAN_POINT('',(51.194018120662,0.67431875012,0.67431875012)
  );
#141 = CARTESIAN_POINT('',(52.274185544177,0.620976754554,0.620976754554
    ));
#142 = CARTESIAN_POINT('',(53.293302557129,0.566670129209,0.566670129209
    ));
#143 = CARTESIAN_POINT('',(54.248576286189,0.51182435315,0.51182435315)
  );
#144 = CARTESIAN_POINT('',(55.137389149735,0.456882318485,0.456882318485
    ));
#145 = CARTESIAN_POINT('',(55.957305505883,0.402303702011,0.402303702011
    ));
#146 = CARTESIAN_POINT('',(56.706080433943,0.348569334315,0.348569334315
    ));
#147 = CARTESIAN_POINT('',(57.381659637811,0.296174035711,0.296174035711
    ));
#148 = CARTESIAN_POINT('',(57.982206063754,0.245663926765,0.245663926765
    ));
#149 = CARTESIAN_POINT('',(58.50604123934,0.197546214197,0.197546214197)
  );
#150 = CARTESIAN_POINT('',(58.951846796163,0.152609527004,0.152609527004
    ));
#151 = CARTESIAN_POINT('',(59.318099605402,0.111070250099,0.111070250099
    ));
#152 = CARTESIAN_POINT('',(59.604671926142,7.510033274853E-02,
    7.510033274853E-02));
#153 = CARTESIAN_POINT('',(59.808764779476,4.264359619014E-02,
    4.264359619014E-02));
#154 = CARTESIAN_POINT('',(59.934177785038,2.231003389612E-02,
    2.231003389612E-02));
#155 = CARTESIAN_POINT('',(59.986601695748,5.085357155052E-03,
    5.085357155052E-03));
#156 = CARTESIAN_POINT('',(60.,0.,0.));
#157 = AXIS1_PLACEMENT('',#158,#159);
#158 = CARTESIAN_POINT('',(0.,0.,0.));
#159 = DIRECTION('',(1.,0.,0.));
#160 = DEFINITIONAL_REPRESENTATION('',(#161),#165);
#161 = LINE('',#162,#163);
#162 = CARTESIAN_POINT('',(3.14159265359,0.));
#163 = VECTOR('',#164,1.);
#164 = DIRECTION('',(0.,1.));
#165 = ( GEOMETRIC_REPRESENTATION_CONTEXT(2) 
PARAMETRIC_REPRESENTATION_CONTEXT() REPRESENTATION_CONTEXT('2D SPACE',''
  ) );
#166 = PCURVE('',#167,#235);
#167 = SURFACE_OF_REVOLUTION('',#168,#232);
#168 = B_SPLINE_CURVE_WITH_KNOTS('',3,(#169,#170,#171,#172,#173,#174,
    #175,#176,#177,#178,#179,#180,#181,#182,#183,#184,#185,#186,#187,
    #188,#189,#190,#191,#192,#193,#194,#195,#196,#197,#198,#199,#200,
    #201,#202,#203,#204,#205,#206,#207,#208,#209,#210,#211,#212,#213,
    #214,#215,#216,#217,#218,#219,#220,#221,#222,#223,#224,#225,#226,
    #227,#228,#229,#230,#231),.UNSPECIFIED.,.F.,.F.,(4,1,1,1,1,1,1,1,1,1
    ,1,1,1,1,1,1,1,1,1,1,1,1,1,1,1,1,1,1,1,1,1,1,1,1,1,1,1,1,1,1,1,1,1,1
    ,1,1,1,1,1,1,1,1,1,1,1,1,1,1,1,1,4),(0.,4.535786426562E-02,
    0.17343793914,0.383309129877,0.674340218142,1.045708857361,
    1.49638047848,2.025106720027,2.630427642848,3.310675368184,
    4.063978565599,4.888267601739,5.781280269121,6.740568050339,
    7.763502886526,8.847284424126,9.988947715962,11.185371353135,
    12.433286004129,13.729283337138,15.069825301057,16.451253740063,
    17.869800316086,19.321596712981,20.802685095677,22.309028797143,
    23.836523205577,25.381006823894,26.938272473248,28.504078612111,
    30.074160742177,31.644242872243,33.210049011106,34.76731466046,
    36.311798278777,37.839292687211,39.345636388677,40.826724771373,
    42.278521168268,43.697067744291,45.078496183297,46.419038147217,
    47.715035480225,48.962950131219,50.159373768392,51.301037060228,
    52.384818597828,53.407753434015,54.367041215233,55.260053882615,
    56.084342918755,56.83764611617,57.517893841506,58.123214764327,
    58.651941005874,59.102612626993,59.473981266212,59.765012354477,
    59.974883545214,60.102963620089,60.148321484354),.UNSPECIFIED.);
#169 = CARTESIAN_POINT('',(0.,0.,0.));
#170 = CARTESIAN_POINT('',(1.339830425225E-02,5.085357155052E-03,
    5.085357155052E-03));
#171 = CARTESIAN_POINT('',(6.582221496206E-02,2.231003389612E-02,
    2.231003389612E-02));
#172 = CARTESIAN_POINT('',(0.191235220524,4.264359619014E-02,
    4.264359619014E-02));
#173 = CARTESIAN_POINT('',(0.395328073858,7.510033274853E-02,
    7.510033274853E-02));
#174 = CARTESIAN_POINT('',(0.681900394598,0.111070250099,0.111070250099)
  );
#175 = CARTESIAN_POINT('',(1.048153203837,0.152609527004,0.152609527004)
  );
#176 = CARTESIAN_POINT('',(1.49395876066,0.197546214197,0.197546214197)
  );
#177 = CARTESIAN_POINT('',(2.017793936246,0.245663926765,0.245663926765)
  );
#178 = CARTESIAN_POINT('',(2.618340362189,0.296174035711,0.296174035711)
  );
#179 = CARTESIAN_POINT('',(3.293919566057,0.348569334315,0.348569334315)
  );
#180 = CARTESIAN_POINT('',(4.042694494117,0.402303702011,0.402303702011)
  );
#181 = CARTESIAN_POINT('',(4.862610850265,0.456882318485,0.456882318485)
  );
#182 = CARTESIAN_POINT('',(5.751423713811,0.51182435315,0.51182435315));
#183 = CARTESIAN_POINT('',(6.706697442871,0.566670129209,0.566670129209)
  );
#184 = CARTESIAN_POINT('',(7.725814455823,0.620976754554,0.620976754554)
  );
#185 = CARTESIAN_POINT('',(8.805981879338,0.67431875012,0.67431875012));
#186 = CARTESIAN_POINT('',(9.944239430439,0.726288113286,0.726288113286)
  );
#187 = CARTESIAN_POINT('',(11.137467508571,0.776495163645,0.776495163645
    ));
#188 = CARTESIAN_POINT('',(12.382395782951,0.82456955356,0.82456955356)
  );
#189 = CARTESIAN_POINT('',(13.675612166606,0.870161475492,0.870161475492
    ));
#190 = CARTESIAN_POINT('',(15.013572180558,0.912942949556,0.912942949556
    ));
#191 = CARTESIAN_POINT('',(16.392608676425,0.952609145762,0.952609145762
    ));
#192 = CARTESIAN_POINT('',(17.808941893792,0.988879693768,0.988879693768
    ));
#193 = CARTESIAN_POINT('',(19.2586898248,1.021499946718,1.021499946718)
  );
#194 = CARTESIAN_POINT('',(20.737878858089,1.050242171446,1.050242171446
    ));
#195 = CARTESIAN_POINT('',(22.242454673152,1.074906643005,1.074906643005
    ));
#196 = CARTESIAN_POINT('',(23.768293355449,1.095322625479,1.095322625479
    ));
#197 = CARTESIAN_POINT('',(25.31121270193,1.111349224551,1.111349224551)
  );
#198 = CARTESIAN_POINT('',(26.866983686092,1.12287610006,1.12287610006)
  );
#199 = CARTESIAN_POINT('',(28.431342051206,1.129824029398,1.129824029398
    ));
#200 = CARTESIAN_POINT('',(30.,1.132145314756,1.132145314756));
#201 = CARTESIAN_POINT('',(31.568657948794,1.129824029398,1.129824029398
    ));
#202 = CARTESIAN_POINT('',(33.133016313908,1.12287610006,1.12287610006)
  );
#203 = CARTESIAN_POINT('',(34.68878729807,1.111349224551,1.111349224551)
  );
#204 = CARTESIAN_POINT('',(36.231706644551,1.095322625479,1.095322625479
    ));
#205 = CARTESIAN_POINT('',(37.757545326848,1.074906643005,1.074906643005
    ));
#206 = CARTESIAN_POINT('',(39.262121141911,1.050242171446,1.050242171446
    ));
#207 = CARTESIAN_POINT('',(40.7413101752,1.021499946718,1.021499946718)
  );
#208 = CARTESIAN_POINT('',(42.191058106208,0.988879693768,0.988879693768
    ));
#209 = CARTESIAN_POINT('',(43.607391323575,0.952609145762,0.952609145762
    ));
#210 = CARTESIAN_POINT('',(44.986427819442,0.912942949556,0.912942949556
    ));
#211 = CARTESIAN_POINT('',(46.324387833394,0.870161475492,0.870161475492
    ));
#212 = CARTESIAN_POINT('',(47.617604217049,0.82456955356,0.82456955356)
  );
#213 = CARTESIAN_POINT('',(48.862532491429,0.776495163645,0.776495163645
    ));
#214 = CARTESIAN_POINT('',(50.055760569561,0.726288113286,0.726288113286
    ));
#215 = CARTESIAN_POINT('',(51.194018120662,0.67431875012,0.67431875012)
  );
#216 = CARTESIAN_POINT('',(52.274185544177,0.620976754554,0.620976754554
    ));
#217 = CARTESIAN_POINT('',(53.293302557129,0.566670129209,0.566670129209
    ));
#218 = CARTESIAN_POINT('',(54.248576286189,0.51182435315,0.51182435315)
  );
#219 = CARTESIAN_POINT('',(55.137389149735,0.456882318485,0.456882318485
    ));
#220 = CARTESIAN_POINT('',(55.957305505883,0.402303702011,0.402303702011
    ));
#221 = CARTESIAN_POINT('',(56.706080433943,0.348569334315,0.348569334315
    ));
#222 = CARTESIAN_POINT('',(57.381659637811,0.296174035711,0.296174035711
    ));
#223 = CARTESIAN_POINT('',(57.982206063754,0.245663926765,0.245663926765
    ));
#224 = CARTESIAN_POINT('',(58.50604123934,0.197546214197,0.197546214197)
  );
#225 = CARTESIAN_POINT('',(58.951846796163,0.152609527004,0.152609527004
    ));
#226 = CARTESIAN_POINT('',(59.318099605402,0.111070250099,0.111070250099
    ));
#227 = CARTESIAN_POINT('',(59.604671926142,7.510033274853E-02,
    7.510033274853E-02));
#228 = CARTESIAN_POINT('',(59.808764779476,4.264359619014E-02,
    4.264359619014E-02));
#229 = CARTESIAN_POINT('',(59.934177785038,2.231003389612E-02,
    2.231003389612E-02));
#230 = CARTESIAN_POINT('',(59.986601695748,5.085357155052E-03,
    5.085357155052E-03));
#231 = CARTESIAN_POINT('',(60.,0.,0.));
#232 = AXIS1_PLACEMENT('',#233,#234);
#233 = CARTESIAN_POINT('',(0.,0.,0.));
#234 = DIRECTION('',(-1.,-0.,0.));
#235 = DEFINITIONAL_REPRESENTATION('',(#236),#239);
#236 = B_SPLINE_CURVE_WITH_KNOTS('',1,(#237,#238),.UNSPECIFIED.,.F.,.F.,
  (2,2),(0.,60.148321484354),.PIECEWISE_BEZIER_KNOTS.);
#237 = CARTESIAN_POINT('',(3.14159265359,0.));
#238 = CARTESIAN_POINT('',(3.14159265359,60.148321484354));
#239 = ( GEOMETRIC_REPRESENTATION_CONTEXT(2) 
PARAMETRIC_REPRESENTATION_CONTEXT() REPRESENTATION_CONTEXT('2D SPACE',''
  ) );
#240 = ORIENTED_EDGE('',*,*,#241,.F.);
#241 = EDGE_CURVE('',#22,#24,#242,.T.);
#242 = SURFACE_CURVE('',#243,(#307,#314),.PCURVE_S1.);
#243 = B_SPLINE_CURVE_WITH_KNOTS('',3,(#244,#245,#246,#247,#248,#249,
    #250,#251,#252,#253,#254,#255,#256,#257,#258,#259,#260,#261,#262,
    #263,#264,#265,#266,#267,#268,#269,#270,#271,#272,#273,#274,#275,
    #276,#277,#278,#279,#280,#281,#282,#283,#284,#285,#286,#287,#288,
    #289,#290,#291,#292,#293,#294,#295,#296,#297,#298,#299,#300,#301,
    #302,#303,#304,#305,#306),.UNSPECIFIED.,.F.,.F.,(4,1,1,1,1,1,1,1,1,1
    ,1,1,1,1,1,1,1,1,1,1,1,1,1,1,1,1,1,1,1,1,1,1,1,1,1,1,1,1,1,1,1,1,1,1
    ,1,1,1,1,1,1,1,1,1,1,1,1,1,1,1,1,4),(0.,4.535786426562E-02,
    0.17343793914,0.383309129877,0.674340218142,1.045708857361,
    1.49638047848,2.025106720027,2.630427642848,3.310675368184,
    4.063978565599,4.888267601739,5.781280269121,6.740568050339,
    7.763502886526,8.847284424126,9.988947715962,11.185371353135,
    12.433286004129,13.729283337138,15.069825301057,16.451253740063,
    17.869800316086,19.321596712981,20.802685095677,22.309028797143,
    23.836523205577,25.381006823894,26.938272473248,28.504078612111,
    30.074160742177,31.644242872243,33.210049011106,34.76731466046,
    36.311798278777,37.839292687211,39.345636388677,40.826724771373,
    42.278521168268,43.697067744291,45.078496183297,46.419038147217,
    47.715035480225,48.962950131219,50.159373768392,51.301037060228,
    52.384818597828,53.407753434015,54.367041215233,55.260053882615,
    56.084342918755,56.83764611617,57.517893841506,58.123214764327,
    58.651941005874,59.102612626993,59.473981266212,59.765012354477,
    59.974883545214,60.102963620089,60.148321484354),.UNSPECIFIED.);
#244 = CARTESIAN_POINT('',(0.,0.,0.));
#245 = CARTESIAN_POINT('',(1.339830425225E-02,5.085357155052E-03,
    5.085357155052E-03));
#246 = CARTESIAN_POINT('',(6.582221496206E-02,2.231003389612E-02,
    2.231003389612E-02));
#247 = CARTESIAN_POINT('',(0.191235220524,4.264359619014E-02,
    4.264359619014E-02));
#248 = CARTESIAN_POINT('',(0.395328073858,7.510033274853E-02,
    7.510033274853E-02));
#249 = CARTESIAN_POINT('',(0.681900394598,0.111070250099,0.111070250099)
  );
#250 = CARTESIAN_POINT('',(1.048153203837,0.152609527004,0.152609527004)
  );
#251 = CARTESIAN_POINT('',(1.49395876066,0.197546214197,0.197546214197)
  );
#252 = CARTESIAN_POINT('',(2.017793936246,0.245663926765,0.245663926765)
  );
#253 = CARTESIAN_POINT('',(2.618340362189,0.296174035711,0.296174035711)
  );
#254 = CARTESIAN_POINT('',(3.293919566057,0.348569334315,0.348569334315)
  );
#255 = CARTESIAN_POINT('',(4.042694494117,0.402303702011,0.402303702011)
  );
#256 = CARTESIAN_POINT('',(4.862610850265,0.456882318485,0.456882318485)
  );
#257 = CARTESIAN_POINT('',(5.751423713811,0.51182435315,0.51182435315));
#258 = CARTESIAN_POINT('',(6.706697442871,0.566670129209,0.566670129209)
  );
#259 = CARTESIAN_POINT('',(7.725814455823,0.620976754554,0.620976754554)
  );
#260 = CARTESIAN_POINT('',(8.805981879338,0.67431875012,0.67431875012));
#261 = CARTESIAN_POINT('',(9.944239430439,0.726288113286,0.726288113286)
  );
#262 = CARTESIAN_POINT('',(11.137467508571,0.776495163645,0.776495163645
    ));
#263 = CARTESIAN_POINT('',(12.382395782951,0.82456955356,0.82456955356)
  );
#264 = CARTESIAN_POINT('',(13.675612166606,0.870161475492,0.870161475492
    ));
#265 = CARTESIAN_POINT('',(15.013572180558,0.912942949556,0.912942949556
    ));
#266 = CARTESIAN_POINT('',(16.392608676425,0.952609145762,0.952609145762
    ));
#267 = CARTESIAN_POINT('',(17.808941893792,0.988879693768,0.988879693768
    ));
#268 = CARTESIAN_POINT('',(19.2586898248,1.021499946718,1.021499946718)
  );
#269 = CARTESIAN_POINT('',(20.737878858089,1.050242171446,1.050242171446
    ));
#270 = CARTESIAN_POINT('',(22.242454673152,1.074906643005,1.074906643005
    ));
#271 = CARTESIAN_POINT('',(23.768293355449,1.095322625479,1.095322625479
    ));
#272 = CARTESIAN_POINT('',(25.31121270193,1.111349224551,1.111349224551)
  );
#273 = CARTESIAN_POINT('',(26.866983686092,1.12287610006,1.12287610006)
  );
#274 = CARTESIAN_POINT('',(28.431342051206,1.129824029398,1.129824029398
    ));
#275 = CARTESIAN_POINT('',(30.,1.132145314756,1.132145314756));
#276 = CARTESIAN_POINT('',(31.568657948794,1.129824029398,1.129824029398
    ));
#277 = CARTESIAN_POINT('',(33.133016313908,1.12287610006,1.12287610006)
  );
#278 = CARTESIAN_POINT('',(34.68878729807,1.111349224551,1.111349224551)
  );
#279 = CARTESIAN_POINT('',(36.231706644551,1.095322625479,1.095322625479
    ));
#280 = CARTESIAN_POINT('',(37.757545326848,1.074906643005,1.074906643005
    ));
#281 = CARTESIAN_POINT('',(39.262121141911,1.050242171446,1.050242171446
    ));
#282 = CARTESIAN_POINT('',(40.7413101752,1.021499946718,1.021499946718)
  );
#283 = CARTESIAN_POINT('',(42.191058106208,0.988879693768,0.988879693768
    ));
#284 = CARTESIAN_POINT('',(43.607391323575,0.952609145762,0.952609145762
    ));
#285 = CARTESIAN_POINT('',(44.986427819442,0.912942949556,0.912942949556
    ));
#286 = CARTESIAN_POINT('',(46.324387833394,0.870161475492,0.870161475492
    ));
#287 = CARTESIAN_POINT('',(47.617604217049,0.82456955356,0.82456955356)
  );
#288 = CARTESIAN_POINT('',(48.862532491429,0.776495163645,0.776495163645
    ));
#289 = CARTESIAN_POINT('',(50.055760569561,0.726288113286,0.726288113286
    ));
#290 = CARTESIAN_POINT('',(51.194018120662,0.67431875012,0.67431875012)
  );
#291 = CARTESIAN_POINT('',(52.274185544177,0.620976754554,0.620976754554
    ));
#292 = CARTESIAN_POINT('',(53.293302557129,0.566670129209,0.566670129209
    ));
#293 = CARTESIAN_POINT('',(54.248576286189,0.51182435315,0.51182435315)
  );
#294 = CARTESIAN_POINT('',(55.137389149735,0.456882318485,0.456882318485
    ));
#295 = CARTESIAN_POINT('',(55.957305505883,0.402303702011,0.402303702011
    ));
#296 = CARTESIAN_POINT('',(56.706080433943,0.348569334315,0.348569334315
    ));
#297 = CARTESIAN_POINT('',(57.381659637811,0.296174035711,0.296174035711
    ));
#298 = CARTESIAN_POINT('',(57.982206063754,0.245663926765,0.245663926765
    ));
#299 = CARTESIAN_POINT('',(58.50604123934,0.197546214197,0.197546214197)
  );
#300 = CARTESIAN_POINT('',(58.951846796163,0.152609527004,0.152609527004
    ));
#301 = CARTESIAN_POINT('',(59.318099605402,0.111070250099,0.111070250099
    ));
#302 = CARTESIAN_POINT('',(59.604671926142,7.510033274853E-02,
    7.510033274853E-02));
#303 = CARTESIAN_POINT('',(59.808764779476,4.264359619014E-02,
    4.264359619014E-02));
#304 = CARTESIAN_POINT('',(59.934177785038,2.231003389612E-02,
    2.231003389612E-02));
#305 = CARTESIAN_POINT('',(59.986601695748,5.085357155052E-03,
    5.085357155052E-03));
#306 = CARTESIAN_POINT('',(60.,0.,0.));
#307 = PCURVE('',#92,#308);
#308 = DEFINITIONAL_REPRESENTATION('',(#309),#313);
#309 = LINE('',#310,#311);
#310 = CARTESIAN_POINT('',(0.,0.));
#311 = VECTOR('',#312,1.);
#312 = DIRECTION('',(0.,1.));
#313 = ( GEOMETRIC_REPRESENTATION_CONTEXT(2) 
PARAMETRIC_REPRESENTATION_CONTEXT() REPRESENTATION_CONTEXT('2D SPACE',''
  ) );
#314 = PCURVE('',#167,#315);
#315 = DEFINITIONAL_REPRESENTATION('',(#316),#319);
#316 = B_SPLINE_CURVE_WITH_KNOTS('',1,(#317,#318),.UNSPECIFIED.,.F.,.F.,
  (2,2),(0.,60.148321484354),.PIECEWISE_BEZIER_KNOTS.);
#317 = CARTESIAN_POINT('',(0.,0.));
#318 = CARTESIAN_POINT('',(0.,60.148321484354));
#319 = ( GEOMETRIC_REPRESENTATION_CONTEXT(2) 
PARAMETRIC_REPRESENTATION_CONTEXT() REPRESENTATION_CONTEXT('2D SPACE',''
  ) );
#320 = ADVANCED_FACE('',(#321,#325),#167,.F.);
#321 = FACE_BOUND('',#322,.F.);
#322 = EDGE_LOOP('',(#323,#324));
#323 = ORIENTED_EDGE('',*,*,#241,.F.);
#324 = ORIENTED_EDGE('',*,*,#21,.T.);
#325 = FACE_BOUND('',#326,.F.);
#326 = EDGE_LOOP('',(#327,#602));
#327 = ORIENTED_EDGE('',*,*,#328,.T.);
#328 = EDGE_CURVE('',#329,#331,#333,.T.);
#329 = VERTEX_POINT('',#330);
#330 = CARTESIAN_POINT('',(53.427732990055,0.789859117927,0.));
#331 = VERTEX_POINT('',#332);
#332 = CARTESIAN_POINT('',(26.986359082873,1.587875290692,0.));
#333 = SURFACE_CURVE('',#334,(#403,#475),.PCURVE_S1.);
#334 = B_SPLINE_CURVE_WITH_KNOTS('',7,(#335,#336,#337,#338,#339,#340,
    #341,#342,#343,#344,#345,#346,#347,#348,#349,#350,#351,#352,#353,
    #354,#355,#356,#357,#358,#359,#360,#361,#362,#363,#364,#365,#366,
    #367,#368,#369,#370,#371,#372,#373,#374,#375,#376,#377,#378,#379,
    #380,#381,#382,#383,#384,#385,#386,#387,#388,#389,#390,#391,#392,
    #393,#394,#395,#396,#397,#398,#399,#400,#401,#402),.UNSPECIFIED.,.F.
  ,.F.,(8,6,6,6,6,6,6,6,6,6,6,8),(0.,5.379908793428E-02,0.107685022144,
    0.213620320744,0.314100652674,0.413504929181,0.512782424281,
    0.611286920924,0.70861292758,0.805049054749,0.901886187807,1.),
  .UNSPECIFIED.);
#335 = CARTESIAN_POINT('',(53.427732990055,0.789859117927,0.));
#336 = CARTESIAN_POINT('',(53.220823690576,0.806214441945,
    -1.240731067204E-02));
#337 = CARTESIAN_POINT('',(53.014056124522,0.822031648855,
    -2.45921057463E-02));
#338 = CARTESIAN_POINT('',(52.80742656733,0.837357765924,
    -3.655410832599E-02));
#339 = CARTESIAN_POINT('',(52.600931060989,0.852228373992,
    -4.82931310023E-02));
#340 = CARTESIAN_POINT('',(52.394565946011,0.866677086303,
    -5.980902135744E-02));
#341 = CARTESIAN_POINT('',(52.188327694471,0.880736063381,
    -7.11016574498E-02));
#342 = CARTESIAN_POINT('',(51.775763667376,0.908141166322,
    -9.325819801341E-02));
#343 = CARTESIAN_POINT('',(51.569438633441,0.921486761316,
    -0.104121362389));
#344 = CARTESIAN_POINT('',(51.363232945998,0.934488060265,
    -0.114760418872));
#345 = CARTESIAN_POINT('',(51.157143341713,0.947169450557,
    -0.125175294791));
#346 = CARTESIAN_POINT('',(50.951166553025,0.959550620714,
    -0.135365942125));
#347 = CARTESIAN_POINT('',(50.745299191116,0.971646761604,
    -0.145332336099));
#348 = CARTESIAN_POINT('',(50.135029221702,1.006726394121,
    -0.174226619744));
#349 = CARTESIAN_POINT('',(49.730931875513,1.028938777515,
    -0.192511941709));
#350 = CARTESIAN_POINT('',(49.32722452485,1.050241827513,-0.209930186369
    ));
#351 = CARTESIAN_POINT('',(48.923883585879,1.070701663127,
    -0.226481219905));
#352 = CARTESIAN_POINT('',(48.520897529648,1.090430101235,
    -0.242164815671));
#353 = CARTESIAN_POINT('',(48.118246976856,1.109465935203,
    -0.256980899858));
#354 = CARTESIAN_POINT('',(47.334309004451,1.145335913019,
    -0.284159511453));
#355 = CARTESIAN_POINT('',(46.952989669758,1.162232691778,
    -0.296609074119));
#356 = CARTESIAN_POINT('',(46.571948760225,1.178608131613,
    -0.308277984066));
#357 = CARTESIAN_POINT('',(46.191176863768,1.194505200946,
    -0.319166048545));
#358 = CARTESIAN_POINT('',(45.810664730467,1.209957110717,
    -0.329273199954));
#359 = CARTESIAN_POINT('',(45.430402777393,1.224988000178,
    -0.338599493028));
#360 = CARTESIAN_POINT('',(44.674433189429,1.254103525584,
    -0.355598627818));
#361 = CARTESIAN_POINT('',(44.298720582219,1.268196780142,
    -0.363288099305));
#362 = CARTESIAN_POINT('',(43.923236449475,1.28192405613,-0.370213331303
    ));
#363 = CARTESIAN_POINT('',(43.547973711477,1.295306241806,
    -0.376374264522));
#364 = CARTESIAN_POINT('',(43.172924812809,1.308358697313,
    -0.381770952397));
#365 = CARTESIAN_POINT('',(42.798081298942,1.321091169796,
    -0.386403614474));
#366 = CARTESIAN_POINT('',(42.049267010629,1.345920747029,
    -0.394136393541));
#367 = CARTESIAN_POINT('',(41.675295872108,1.358018911025,
    -0.397238445938));
#368 = CARTESIAN_POINT('',(41.301513354117,1.369816605473,
    -0.399578852787));
#369 = CARTESIAN_POINT('',(40.927910909226,1.38132011745,-0.401157938011
    ));
#370 = CARTESIAN_POINT('',(40.5544794896,1.392533457878,-0.401976128843)
  );
#371 = CARTESIAN_POINT('',(40.181209122969,1.403458031342,
    -0.402033959612));
#372 = CARTESIAN_POINT('',(39.437873061231,1.424643779442,
    -0.400635656469));
#373 = CARTESIAN_POINT('',(39.067805191811,1.434909800657,-0.39919132037
    ));
#374 = CARTESIAN_POINT('',(38.697874054969,1.44488943597,-0.396999737047
    ));
#375 = CARTESIAN_POINT('',(38.328067821278,1.454579626928,
    -0.394061685843));
#376 = CARTESIAN_POINT('',(37.958373461785,1.463975303321,
    -0.390378093682));
#377 = CARTESIAN_POINT('',(37.588776552532,1.473069496283,
    -0.385950073143));
#378 = CARTESIAN_POINT('',(36.85416642195,1.490532316894,-0.37566971414)
  );
#379 = CARTESIAN_POINT('',(36.489151132589,1.498908017608,
    -0.369835042002));
#380 = CARTESIAN_POINT('',(36.124199942201,1.506972455489,
    -0.363276185541));
#381 = CARTESIAN_POINT('',(35.759295811372,1.51471524135,-0.355994602599
    ));
#382 = CARTESIAN_POINT('',(35.394419893509,1.52212404236,-0.347991969506
    ));
#383 = CARTESIAN_POINT('',(35.02955149827,1.529184929513,-0.339270183152
    ));
#384 = CARTESIAN_POINT('',(34.303120845305,1.542519280842,
    -0.320478844816));
#385 = CARTESIAN_POINT('',(33.941558886037,1.548799306113,
    -0.310422370713));
#386 = CARTESIAN_POINT('',(33.579959808149,1.554707319191,
    -0.299664032595));
#387 = CARTESIAN_POINT('',(33.218299500174,1.560226555053,
    -0.288206175589));
#388 = CARTESIAN_POINT('',(32.856551705868,1.565338624393,
    -0.276051431188));
#389 = CARTESIAN_POINT('',(32.494687621841,1.57002317261,-0.263202750329
    ));
#390 = CARTESIAN_POINT('',(31.769158030271,1.57850951259,-0.236067822714
    ));
#391 = CARTESIAN_POINT('',(31.40549149799,1.582307752155,-0.221775815918
    ));
#392 = CARTESIAN_POINT('',(31.041643927999,1.585629702488,
    -0.206790762985));
#393 = CARTESIAN_POINT('',(30.677580724694,1.588450800544,
    -0.191116371046));
#394 = CARTESIAN_POINT('',(30.313264385427,1.590744380914,
    -0.174756758068));
#395 = CARTESIAN_POINT('',(29.948654218711,1.592481581489,
    -0.157716503445));
#396 = CARTESIAN_POINT('',(29.213946511148,1.594796073726,
    -0.122051332548));
#397 = CARTESIAN_POINT('',(28.843840045431,1.595357501564,
    -0.103408515272));
#398 = CARTESIAN_POINT('',(28.473340586067,1.595283134238,
    -8.407753935368E-02));
#399 = CARTESIAN_POINT('',(28.102398578243,1.594537757251,
    -6.406427567303E-02));
#400 = CARTESIAN_POINT('',(27.730960491595,1.593083059472,
    -4.337526191961E-02));
#401 = CARTESIAN_POINT('',(27.358968320249,1.590877352614,
    -2.201779109197E-02));
#402 = CARTESIAN_POINT('',(26.986359082873,1.587875290692,0.));
#403 = PCURVE('',#167,#404);
#404 = DEFINITIONAL_REPRESENTATION('',(#405),#474);
#405 = B_SPLINE_CURVE_WITH_KNOTS('',7,(#406,#407,#408,#409,#410,#411,
    #412,#413,#414,#415,#416,#417,#418,#419,#420,#421,#422,#423,#424,
    #425,#426,#427,#428,#429,#430,#431,#432,#433,#434,#435,#436,#437,
    #438,#439,#440,#441,#442,#443,#444,#445,#446,#447,#448,#449,#450,
    #451,#452,#453,#454,#455,#456,#457,#458,#459,#460,#461,#462,#463,
    #464,#465,#466,#467,#468,#469,#470,#471,#472,#473),.UNSPECIFIED.,.F.
  ,.F.,(8,6,6,6,6,6,6,6,6,6,6,8),(0.,5.379908793428E-02,0.107685022144,
    0.213620320744,0.314100652674,0.413504929181,0.512782424281,
    0.611286920924,0.70861292758,0.805049054749,0.901886187807,1.),
  .UNSPECIFIED.);
#406 = CARTESIAN_POINT('',(0.785398163397,53.52145797806));
#407 = CARTESIAN_POINT('',(0.801106421225,53.313903591332));
#408 = CARTESIAN_POINT('',(0.815774061908,53.106514939022));
#409 = CARTESIAN_POINT('',(0.829523232391,52.899286782647));
#410 = CARTESIAN_POINT('',(0.842449736799,52.69221425665));
#411 = CARTESIAN_POINT('',(0.85463130003,52.485292457003));
#412 = CARTESIAN_POINT('',(0.866133151105,52.278516381403));
#413 = CARTESIAN_POINT('',(0.887906261026,51.864912495742));
#414 = CARTESIAN_POINT('',(0.898175453254,51.658085402121));
#415 = CARTESIAN_POINT('',(0.907874494018,51.451395215538));
#416 = CARTESIAN_POINT('',(0.9170490625,51.244837537383));
#417 = CARTESIAN_POINT('',(0.925738075564,51.038408304544));
#418 = CARTESIAN_POINT('',(0.933975542701,50.832103702487));
#419 = CARTESIAN_POINT('',(0.957154732283,50.220579807046));
#420 = CARTESIAN_POINT('',(0.970886974865,49.815707410104));
#421 = CARTESIAN_POINT('',(0.98320850814,49.411274889792));
#422 = CARTESIAN_POINT('',(0.994283660047,49.007257812267));
#423 = CARTESIAN_POINT('',(1.004231835755,48.603637154555));
#424 = CARTESIAN_POINT('',(1.013158271287,48.200393497986));
#425 = CARTESIAN_POINT('',(1.028718118824,47.415373036326));
#426 = CARTESIAN_POINT('',(1.035445944193,47.03356058332));
#427 = CARTESIAN_POINT('',(1.041398700933,46.652058497216));
#428 = CARTESIAN_POINT('',(1.046631772528,46.270854901492));
#429 = CARTESIAN_POINT('',(1.051191507521,45.889938666803));
#430 = CARTESIAN_POINT('',(1.055118096159,45.509298926692));
#431 = CARTESIAN_POINT('',(1.06173490932,44.752626508379));
#432 = CARTESIAN_POINT('',(1.064437887443,44.376588317676));
#433 = CARTESIAN_POINT('',(1.066586268322,44.000801300004));
#434 = CARTESIAN_POINT('',(1.068206458211,43.625256785111));
#435 = CARTESIAN_POINT('',(1.069321230501,43.249945921116));
#436 = CARTESIAN_POINT('',(1.069950777868,42.874859285693));
#437 = CARTESIAN_POINT('',(1.070272686502,42.125594303012));
#438 = CARTESIAN_POINT('',(1.069966199501,41.751415523121));
#439 = CARTESIAN_POINT('',(1.069209405313,41.377441898197));
#440 = CARTESIAN_POINT('',(1.06801665197,41.003663850946));
#441 = CARTESIAN_POINT('',(1.066400058827,40.630071339083));
#442 = CARTESIAN_POINT('',(1.064369971275,40.256653468995));
#443 = CARTESIAN_POINT('',(1.059519815669,39.513049005826));
#444 = CARTESIAN_POINT('',(1.056705958761,39.142860012514));
#445 = CARTESIAN_POINT('',(1.053502506487,38.772819457894));
#446 = CARTESIAN_POINT('',(1.049916660405,38.402914713699));
#447 = CARTESIAN_POINT('',(1.045954301917,38.033131989029));
#448 = CARTESIAN_POINT('',(1.041620132306,37.663456124404));
#449 = CARTESIAN_POINT('',(1.032271750952,36.928706304189));
#450 = CARTESIAN_POINT('',(1.027266336757,36.563630094661));
#451 = CARTESIAN_POINT('',(1.021904984856,36.198625779113));
#452 = CARTESIAN_POINT('',(1.016190198672,35.833675661603));
#453 = CARTESIAN_POINT('',(1.010123527425,35.468760270251));
#454 = CARTESIAN_POINT('',(1.003705523163,35.103858299118));
#455 = CARTESIAN_POINT('',(0.990227770858,34.377371293444));
#456 = CARTESIAN_POINT('',(0.983174453637,34.015786463208));
#457 = CARTESIAN_POINT('',(0.97577535742,33.654169112488));
#458 = CARTESIAN_POINT('',(0.968029141138,33.292494548964));
#459 = CARTESIAN_POINT('',(0.959933484747,32.93073594024));
#460 = CARTESIAN_POINT('',(0.951485062627,32.568863919189));
#461 = CARTESIAN_POINT('',(0.933837355633,31.843323097834));
#462 = CARTESIAN_POINT('',(0.924635071558,31.479653287764));
#463 = CARTESIAN_POINT('',(0.915068173626,31.115804221395));
#464 = CARTESIAN_POINT('',(0.905131094898,30.751740745136));
#465 = CARTESIAN_POINT('',(0.894817019264,30.387424800991));
#466 = CARTESIAN_POINT('',(0.884117708089,30.022815138045));
#467 = CARTESIAN_POINT('',(0.861782679783,29.288107515422));
#468 = CARTESIAN_POINT('',(0.850136516023,28.918000617614));
#469 = CARTESIAN_POINT('',(0.838074533481,28.547499668051));
#470 = CARTESIAN_POINT('',(0.825584840791,28.176554515444));
#471 = CARTESIAN_POINT('',(0.81265354847,27.805111019707));
#472 = CARTESIAN_POINT('',(0.799264360082,27.433110551991));
#473 = CARTESIAN_POINT('',(0.785398163397,27.060489494705));
#474 = ( GEOMETRIC_REPRESENTATION_CONTEXT(2) 
PARAMETRIC_REPRESENTATION_CONTEXT() REPRESENTATION_CONTEXT('2D SPACE',''
  ) );
#475 = PCURVE('',#476,#531);
#476 = B_SPLINE_SURFACE_WITH_KNOTS('',3,1,(
    (#477,#478)
    ,(#479,#480)
    ,(#481,#482)
    ,(#483,#484)
    ,(#485,#486)
    ,(#487,#488)
    ,(#489,#490)
    ,(#491,#492)
    ,(#493,#494)
    ,(#495,#496)
    ,(#497,#498)
    ,(#499,#500)
    ,(#501,#502)
    ,(#503,#504)
    ,(#505,#506)
    ,(#507,#508)
    ,(#509,#510)
    ,(#511,#512)
    ,(#513,#514)
    ,(#515,#516)
    ,(#517,#518)
    ,(#519,#520)
    ,(#521,#522)
    ,(#523,#524)
    ,(#525,#526)
    ,(#527,#528)
    ,(#529,#530
    )),.UNSPECIFIED.,.F.,.F.,.F.,(4,1,1,1,1,1,1,1,1,1,1,1,1,1,1,1,1,1,1,
    1,1,1,1,1,4),(2,2),(0.,0.12855589223,0.512000805356,1.143707996614,
    2.012770144345,3.104200971558,4.399209368203,5.875538633081,
    7.507862334684,9.268227723906,11.126537571071,13.051061632999,
    15.008969526799,16.966877420598,18.891401482527,20.749711329692,
    22.510076718914,24.142400420516,25.618729685395,26.91373808204,
    28.005168909252,28.874231056983,29.505938248241,29.889383161367,
    30.017939053597),(0.,1.),.UNSPECIFIED.);
#477 = CARTESIAN_POINT('',(53.435782060396,-0.3,0.));
#478 = CARTESIAN_POINT('',(53.330170514849,14.,0.));
#479 = CARTESIAN_POINT('',(53.393007022692,-0.3,-2.56650229578E-03));
#480 = CARTESIAN_POINT('',(53.325893011078,14.,-2.566502295781E-04));
#481 = CARTESIAN_POINT('',(53.222643845239,-0.3,-1.274456978811E-02));
#482 = CARTESIAN_POINT('',(53.308856693333,14.,-1.274456978811E-03));
#483 = CARTESIAN_POINT('',(52.842063288361,-0.3,-3.50927128961E-02));
#484 = CARTESIAN_POINT('',(53.270798637645,14.,-3.509271289609E-03));
#485 = CARTESIAN_POINT('',(52.21499817116,-0.3,-7.064375676982E-02));
#486 = CARTESIAN_POINT('',(53.208092125925,14.,-7.064375676982E-03));
#487 = CARTESIAN_POINT('',(51.352172769457,-0.3,-0.116975299939));
#488 = CARTESIAN_POINT('',(53.121809585755,14.,-1.169752999386E-02));
#489 = CARTESIAN_POINT('',(50.268344377013,-0.3,-0.170930268133));
#490 = CARTESIAN_POINT('',(53.01342674651,14.,-1.709302681334E-02));
#491 = CARTESIAN_POINT('',(48.982051695451,-0.3,-0.228831972062));
#492 = CARTESIAN_POINT('',(52.884797478354,14.,-2.288319720624E-02));
#493 = CARTESIAN_POINT('',(47.515298529154,-0.3,-0.286734599713));
#494 = CARTESIAN_POINT('',(52.738122161724,14.,-2.867345997127E-02));
#495 = CARTESIAN_POINT('',(45.89317806134,-0.3,-0.340692091579));
#496 = CARTESIAN_POINT('',(52.575910114943,14.,-3.406920915791E-02));
#497 = CARTESIAN_POINT('',(44.143444021951,-0.3,-0.387027082124));
#498 = CARTESIAN_POINT('',(52.400936711004,14.,-3.870270821241E-02));
#499 = CARTESIAN_POINT('',(42.296036003245,-0.3,-0.422581573441));
#500 = CARTESIAN_POINT('',(52.216195909134,14.,-4.225815734411E-02));
#501 = CARTESIAN_POINT('',(40.38256701339,-0.3,-0.444932240149));
#502 = CARTESIAN_POINT('',(52.024849010148,14.,-4.449322401495E-02));
#503 = CARTESIAN_POINT('',(38.435782060396,-0.3,-0.452555667975));
#504 = CARTESIAN_POINT('',(51.830170514849,14.,-4.525556679752E-02));
#505 = CARTESIAN_POINT('',(36.488997107402,-0.3,-0.444932240149));
#506 = CARTESIAN_POINT('',(51.635492019549,14.,-4.449322401495E-02));
#507 = CARTESIAN_POINT('',(34.575528117548,-0.3,-0.422581573441));
#508 = CARTESIAN_POINT('',(51.444145120564,14.,-4.225815734411E-02));
#509 = CARTESIAN_POINT('',(32.728120098841,-0.3,-0.387027082124));
#510 = CARTESIAN_POINT('',(51.259404318693,14.,-3.870270821241E-02));
#511 = CARTESIAN_POINT('',(30.978386059452,-0.3,-0.340692091579));
#512 = CARTESIAN_POINT('',(51.084430914754,14.,-3.406920915791E-02));
#513 = CARTESIAN_POINT('',(29.356265591638,-0.3,-0.286734599713));
#514 = CARTESIAN_POINT('',(50.922218867973,14.,-2.867345997127E-02));
#515 = CARTESIAN_POINT('',(27.889512425342,-0.3,-0.228831972062));
#516 = CARTESIAN_POINT('',(50.775543551343,14.,-2.288319720624E-02));
#517 = CARTESIAN_POINT('',(26.603219743779,-0.3,-0.170930268133));
#518 = CARTESIAN_POINT('',(50.646914283187,14.,-1.709302681334E-02));
#519 = CARTESIAN_POINT('',(25.519391351335,-0.3,-0.116975299939));
#520 = CARTESIAN_POINT('',(50.538531443943,14.,-1.169752999386E-02));
#521 = CARTESIAN_POINT('',(24.656565949632,-0.3,-7.064375676982E-02));
#522 = CARTESIAN_POINT('',(50.452248903772,14.,-7.064375676982E-03));
#523 = CARTESIAN_POINT('',(24.029500832431,-0.3,-3.50927128961E-02));
#524 = CARTESIAN_POINT('',(50.389542392052,14.,-3.509271289609E-03));
#525 = CARTESIAN_POINT('',(23.648920275553,-0.3,-1.274456978811E-02));
#526 = CARTESIAN_POINT('',(50.351484336364,14.,-1.274456978811E-03));
#527 = CARTESIAN_POINT('',(23.4785570981,-0.3,-2.56650229578E-03));
#528 = CARTESIAN_POINT('',(50.334448018619,14.,-2.566502295781E-04));
#529 = CARTESIAN_POINT('',(23.435782060396,-0.3,0.));
#530 = CARTESIAN_POINT('',(50.330170514849,14.,0.));
#531 = DEFINITIONAL_REPRESENTATION('',(#532),#601);
#532 = B_SPLINE_CURVE_WITH_KNOTS('',7,(#533,#534,#535,#536,#537,#538,
    #539,#540,#541,#542,#543,#544,#545,#546,#547,#548,#549,#550,#551,
    #552,#553,#554,#555,#556,#557,#558,#559,#560,#561,#562,#563,#564,
    #565,#566,#567,#568,#569,#570,#571,#572,#573,#574,#575,#576,#577,
    #578,#579,#580,#581,#582,#583,#584,#585,#586,#587,#588,#589,#590,
    #591,#592,#593,#594,#595,#596,#597,#598,#599,#600),.UNSPECIFIED.,.F.
  ,.F.,(8,6,6,6,6,6,6,6,6,6,6,8),(0.,5.379908793428E-02,0.107685022144,
    0.213620320744,0.314100652674,0.413504929181,0.512782424281,
    0.611286920924,0.70861292758,0.805049054749,0.901886187807,1.),
  .UNSPECIFIED.);
#533 = CARTESIAN_POINT('',(0.,7.621392433053E-02));
#534 = CARTESIAN_POINT('',(0.222416507074,7.735765328287E-02));
#535 = CARTESIAN_POINT('',(0.445244566882,7.846375166817E-02));
#536 = CARTESIAN_POINT('',(0.66845616768,7.953550810657E-02));
#537 = CARTESIAN_POINT('',(0.89202764719,8.057541076868E-02));
#538 = CARTESIAN_POINT('',(1.11593860956,8.158581023096E-02));
#539 = CARTESIAN_POINT('',(1.340171339633,8.256895548118E-02));
#540 = CARTESIAN_POINT('',(1.789612556698,8.448539624627E-02));
#541 = CARTESIAN_POINT('',(2.014821713538,8.54186546375E-02));
#542 = CARTESIAN_POINT('',(2.240322562623,8.632783638215E-02));
#543 = CARTESIAN_POINT('',(2.46610147153,8.721464689209E-02));
#544 = CARTESIAN_POINT('',(2.692146279794,8.808046298697E-02));
#545 = CARTESIAN_POINT('',(2.918446028157,8.89263469653E-02));
#546 = CARTESIAN_POINT('',(3.590359522008,9.137946812034E-02));
#547 = CARTESIAN_POINT('',(4.036674732759,9.293278164443E-02));
#548 = CARTESIAN_POINT('',(4.483863850046,9.442250542049E-02));
#549 = CARTESIAN_POINT('',(4.931863192081,9.585326315577E-02));
#550 = CARTESIAN_POINT('',(5.380626651914,9.723287421227E-02));
#551 = CARTESIAN_POINT('',(5.830107552616,9.856405141277E-02));
#552 = CARTESIAN_POINT('',(6.707252696448,0.10107244147));
#553 = CARTESIAN_POINT('',(7.134848122534,0.10225403439));
#554 = CARTESIAN_POINT('',(7.563023506236,0.103399170043));
#555 = CARTESIAN_POINT('',(7.991751890784,0.104510853213));
#556 = CARTESIAN_POINT('',(8.421008353223,0.105591406344));
#557 = CARTESIAN_POINT('',(8.850769071898,0.106642517495));
#558 = CARTESIAN_POINT('',(9.706650528215,0.108678568223));
#559 = CARTESIAN_POINT('',(10.132760995465,0.109664110499));
#560 = CARTESIAN_POINT('',(10.559323338502,0.110624059869));
#561 = CARTESIAN_POINT('',(10.986319091554,0.111559877049));
#562 = CARTESIAN_POINT('',(11.413729719999,0.112472636176));
#563 = CARTESIAN_POINT('',(11.841535902952,0.113363018867));
#564 = CARTESIAN_POINT('',(12.697356654168,0.115099352939));
#565 = CARTESIAN_POINT('',(13.12537038946,0.115945378393));
#566 = CARTESIAN_POINT('',(13.553741459758,0.116770391991));
#567 = CARTESIAN_POINT('',(13.982450874983,0.117574833388));
#568 = CARTESIAN_POINT('',(14.411479039218,0.118358983068));
#569 = CARTESIAN_POINT('',(14.840805055124,0.119122939255));
#570 = CARTESIAN_POINT('',(15.696662025084,0.120604460101));
#571 = CARTESIAN_POINT('',(16.12318889808,0.121322363682));
#572 = CARTESIAN_POINT('',(16.549964612506,0.122020240278));
#573 = CARTESIAN_POINT('',(16.976965581225,0.122697876009));
#574 = CARTESIAN_POINT('',(17.404166315809,0.123354916316));
#575 = CARTESIAN_POINT('',(17.831539077548,0.123990873866));
#576 = CARTESIAN_POINT('',(18.681453273755,0.125212050132));
#577 = CARTESIAN_POINT('',(19.103991084968,0.125797763469));
#578 = CARTESIAN_POINT('',(19.526638007471,0.126361710174));
#579 = CARTESIAN_POINT('',(19.949362119346,0.126903163731));
#580 = CARTESIAN_POINT('',(20.372128444104,0.127421261704));
#581 = CARTESIAN_POINT('',(20.794898863416,0.127915030036));
#582 = CARTESIAN_POINT('',(21.636500026131,0.128847502157));
#583 = CARTESIAN_POINT('',(22.055331374238,0.129286664763));
#584 = CARTESIAN_POINT('',(22.474085244215,0.129699812531));
#585 = CARTESIAN_POINT('',(22.892717601735,0.130085773081));
#586 = CARTESIAN_POINT('',(23.311180526701,0.130443260447));
#587 = CARTESIAN_POINT('',(23.72942153187,0.130770851231));
#588 = CARTESIAN_POINT('',(24.56708222042,0.13136430158));
#589 = CARTESIAN_POINT('',(24.986499665302,0.131629912738));
#590 = CARTESIAN_POINT('',(25.405577172356,0.131862216957));
#591 = CARTESIAN_POINT('',(25.824251483511,0.132059496542));
#592 = CARTESIAN_POINT('',(26.242453616238,0.132219886777));
#593 = CARTESIAN_POINT('',(26.660108353398,0.132341369335));
#594 = CARTESIAN_POINT('',(27.499657082266,0.132503221939));
#595 = CARTESIAN_POINT('',(27.921533802209,0.132542482627));
#596 = CARTESIAN_POINT('',(28.342678777252,0.132537282115));
#597 = CARTESIAN_POINT('',(28.762998849102,0.13248515785));
#598 = CARTESIAN_POINT('',(29.182391942102,0.132383430732));
#599 = CARTESIAN_POINT('',(29.600746188478,0.132229185497));
#600 = CARTESIAN_POINT('',(30.017939053597,0.132019251097));
#601 = ( GEOMETRIC_REPRESENTATION_CONTEXT(2) 
PARAMETRIC_REPRESENTATION_CONTEXT() REPRESENTATION_CONTEXT('2D SPACE',''
  ) );
#602 = ORIENTED_EDGE('',*,*,#603,.T.);
#603 = EDGE_CURVE('',#331,#329,#604,.T.);
#604 = SURFACE_CURVE('',#605,(#671,#740),.PCURVE_S1.);
#605 = B_SPLINE_CURVE_WITH_KNOTS('',8,(#606,#607,#608,#609,#610,#611,
    #612,#613,#614,#615,#616,#617,#618,#619,#620,#621,#622,#623,#624,
    #625,#626,#627,#628,#629,#630,#631,#632,#633,#634,#635,#636,#637,
    #638,#639,#640,#641,#642,#643,#644,#645,#646,#647,#648,#649,#650,
    #651,#652,#653,#654,#655,#656,#657,#658,#659,#660,#661,#662,#663,
    #664,#665,#666,#667,#668,#669,#670),.UNSPECIFIED.,.F.,.F.,(9,7,7,7,7
    ,7,7,7,7,9),(0.,0.123836665652,0.2458238613,0.367632725801,
    0.491956263753,0.617285391566,0.743082935062,0.870168324444,
    0.934354632278,1.),.UNSPECIFIED.);
#606 = CARTESIAN_POINT('',(26.986359082873,1.587875290692,
    -9.602422405281E-18));
#607 = CARTESIAN_POINT('',(27.39786948484,1.591190774003,
    2.431649340338E-02));
#608 = CARTESIAN_POINT('',(27.808642402516,1.593554681882,
    4.784402167251E-02));
#609 = CARTESIAN_POINT('',(28.218757289682,1.595024222479,
    7.057236224312E-02));
#610 = CARTESIAN_POINT('',(28.628287019145,1.595651661636,
    9.249236812896E-02));
#611 = CARTESIAN_POINT('',(29.037298601662,1.595484863081,0.113595854387
    ));
#612 = CARTESIAN_POINT('',(29.445853904876,1.594567828627,0.13387548458)
  );
#613 = CARTESIAN_POINT('',(29.854010372243,1.592941238363,0.153324657247
    ));
#614 = CARTESIAN_POINT('',(30.663542549642,1.5883790671,0.190272150875)
  );
#615 = CARTESIAN_POINT('',(31.064927861391,1.585463133863,0.207795265587
    ));
#616 = CARTESIAN_POINT('',(31.466028666387,1.581931289915,0.224501028133
    ));
#617 = CARTESIAN_POINT('',(31.866891639323,1.57781663799,0.240384323101)
  );
#618 = CARTESIAN_POINT('',(32.2675595502,1.573149529573,0.255440570133)
  );
#619 = CARTESIAN_POINT('',(32.668071674115,1.567957809701,0.269665666029
    ));
#620 = CARTESIAN_POINT('',(33.068464201056,1.562267061757,0.283055926853
    ));
#621 = CARTESIAN_POINT('',(33.868491888675,1.549943657063,0.308141783483
    ));
#622 = CARTESIAN_POINT('',(34.268126977557,1.543312100536,0.319839834253
    ));
#623 = CARTESIAN_POINT('',(34.667709133402,1.536229574248,0.330698887415
    ));
#624 = CARTESIAN_POINT('',(35.067268490463,1.52871708519,0.340716025634)
  );
#625 = CARTESIAN_POINT('',(35.466832398756,1.520793365984,0.349888673068
    ));
#626 = CARTESIAN_POINT('',(35.866425726625,1.512474985085,0.358214559268
    ));
#627 = CARTESIAN_POINT('',(36.266071163317,1.503776456971,0.365691683081
    ));
#628 = CARTESIAN_POINT('',(37.073759833749,1.485457083252,0.379081672203
    ));
#629 = CARTESIAN_POINT('',(37.481805821248,1.475820414803,0.384959050003
    ));
#630 = CARTESIAN_POINT('',(37.889949825421,1.46581426814,0.389948603454)
  );
#631 = CARTESIAN_POINT('',(38.298211397215,1.455448953213,0.39404869193)
  );
#632 = CARTESIAN_POINT('',(38.706608166,1.444732521372,0.397257929339));
#633 = CARTESIAN_POINT('',(39.115156309864,1.433671178686,0.399575197322
    ));
#634 = CARTESIAN_POINT('',(39.523870627391,1.422268759984,0.400999582975
    ));
#635 = CARTESIAN_POINT('',(40.344965126606,1.398686780098,0.402065191466
    ));
#636 = CARTESIAN_POINT('',(40.757348140638,1.386501543331,0.401691886323
    ));
#637 = CARTESIAN_POINT('',(41.169927300817,1.373971108531,0.400409579682
    ));
#638 = CARTESIAN_POINT('',(41.582714766626,1.361092616176,0.39821759736)
  );
#639 = CARTESIAN_POINT('',(41.995721742426,1.347860489151,0.395115416459
    ));
#640 = CARTESIAN_POINT('',(42.408958967966,1.334266777064,0.391102684274
    ));
#641 = CARTESIAN_POINT('',(42.822436766165,1.320300147726,0.386179176638
    ));
#642 = CARTESIAN_POINT('',(43.651438831767,1.291533246253,0.3744884085)
  );
#643 = CARTESIAN_POINT('',(44.066964809434,1.276729711216,0.367714338761
    ));
#644 = CARTESIAN_POINT('',(44.482754571487,1.261523796689,0.360022094732
    ));
#645 = CARTESIAN_POINT('',(44.898812316623,1.245874781133,0.35141230277)
  );
#646 = CARTESIAN_POINT('',(45.315156630158,1.229790251833,0.341883828759
    ));
#647 = CARTESIAN_POINT('',(45.731789514519,1.213210669866,0.331437659638
    ));
#648 = CARTESIAN_POINT('',(46.148726241796,1.196116107647,0.320073441034
    ));
#649 = CARTESIAN_POINT('',(46.987500984431,1.160622761988,0.295383492393
    ));
#650 = CARTESIAN_POINT('',(47.409345144709,1.142213692802,0.282038866788
    ));
#651 = CARTESIAN_POINT('',(47.831521348328,1.123177468311,0.267757682909
    ));
#652 = CARTESIAN_POINT('',(48.254049176242,1.103495523755,0.252539779823
    ));
#653 = CARTESIAN_POINT('',(48.67693334187,1.08304991073,0.236385621142)
  );
#654 = CARTESIAN_POINT('',(49.100200860195,1.061828050578,0.219295141672
    ));
#655 = CARTESIAN_POINT('',(49.523864004219,1.03970431176,0.201268616672)
  );
#656 = CARTESIAN_POINT('',(50.162137760979,1.004908972428,0.172728937669
    ));
#657 = CARTESIAN_POINT('',(50.376434637669,0.992978485097,0.162912955956
    ));
#658 = CARTESIAN_POINT('',(50.590841523852,0.98078005061,0.152858264205)
  );
#659 = CARTESIAN_POINT('',(50.805361365443,0.968297543201,0.142564894006
    ));
#660 = CARTESIAN_POINT('',(51.019997337875,0.955514127323,0.132032880184
    ));
#661 = CARTESIAN_POINT('',(51.234752891603,0.942412156276,0.121262260965
    ));
#662 = CARTESIAN_POINT('',(51.449631682865,0.928971515326,0.11025308374)
  );
#663 = CARTESIAN_POINT('',(51.884530528333,0.901047490665,
    8.750207120137E-02));
#664 = CARTESIAN_POINT('',(52.104556016291,0.886548206501,
    7.574929176467E-02));
#665 = CARTESIAN_POINT('',(52.324718193933,0.871640310771,
    6.374714073962E-02));
#666 = CARTESIAN_POINT('',(52.545021955277,0.856302288567,
    5.149565975555E-02));
#667 = CARTESIAN_POINT('',(52.765471127098,0.840496922127,
    3.899499827708E-02));
#668 = CARTESIAN_POINT('',(52.986069538457,0.824182112649,
    2.624535445022E-02));
#669 = CARTESIAN_POINT('',(53.206822072206,0.807321211944,
    1.324691734737E-02));
#670 = CARTESIAN_POINT('',(53.427732990055,0.789859117927,
    2.347402979252E-17));
#671 = PCURVE('',#167,#672);
#672 = DEFINITIONAL_REPRESENTATION('',(#673),#739);
#673 = B_SPLINE_CURVE_WITH_KNOTS('',8,(#674,#675,#676,#677,#678,#679,
    #680,#681,#682,#683,#684,#685,#686,#687,#688,#689,#690,#691,#692,
    #693,#694,#695,#696,#697,#698,#699,#700,#701,#702,#703,#704,#705,
    #706,#707,#708,#709,#710,#711,#712,#713,#714,#715,#716,#717,#718,
    #719,#720,#721,#722,#723,#724,#725,#726,#727,#728,#729,#730,#731,
    #732,#733,#734,#735,#736,#737,#738),.UNSPECIFIED.,.F.,.F.,(9,7,7,7,7
    ,7,7,7,7,9),(0.,0.123836665652,0.2458238613,0.367632725801,
    0.491956263753,0.617285391566,0.743082935062,0.870168324444,
    0.934354632278,1.),.UNSPECIFIED.);
#674 = CARTESIAN_POINT('',(0.785398163397,27.060489494705));
#675 = CARTESIAN_POINT('',(0.770084307488,27.472012950606));
#676 = CARTESIAN_POINT('',(0.755340364031,27.882794710136));
#677 = CARTESIAN_POINT('',(0.741142384177,28.292915032334));
#678 = CARTESIAN_POINT('',(0.727469894261,28.702447570876));
#679 = CARTESIAN_POINT('',(0.714305471189,29.111460097994));
#680 = CARTESIAN_POINT('',(0.701634317838,29.520015228388));
#681 = CARTESIAN_POINT('',(0.689443838446,29.928171143143));
#682 = CARTESIAN_POINT('',(0.666177634211,30.73770292507));
#683 = CARTESIAN_POINT('',(0.655087983357,31.139088386307));
#684 = CARTESIAN_POINT('',(0.644444071671,31.540190383895));
#685 = CARTESIAN_POINT('',(0.634237439707,31.941056290575));
#686 = CARTESIAN_POINT('',(0.624461230659,32.341729576548));
#687 = CARTESIAN_POINT('',(0.615110062679,32.742250220758));
#688 = CARTESIAN_POINT('',(0.606179901187,33.142655122159));
#689 = CARTESIAN_POINT('',(0.589168404699,33.942716673414));
#690 = CARTESIAN_POINT('',(0.581085814289,34.342373248625));
#691 = CARTESIAN_POINT('',(0.573417425749,34.741982167253));
#692 = CARTESIAN_POINT('',(0.56616168133,35.141574292713));
#693 = CARTESIAN_POINT('',(0.559318207542,35.541177723333));
#694 = CARTESIAN_POINT('',(0.552887822965,35.940818094471));
#695 = CARTESIAN_POINT('',(0.546872546055,36.340518880645));
#696 = CARTESIAN_POINT('',(0.535563114195,37.148337799336));
#697 = CARTESIAN_POINT('',(0.53028634796,37.5564590981));
#698 = CARTESIAN_POINT('',(0.525448821512,37.964688738772));
#699 = CARTESIAN_POINT('',(0.521055241615,38.373047205607));
#700 = CARTESIAN_POINT('',(0.517111714848,38.781553083357));
#701 = CARTESIAN_POINT('',(0.513625919465,39.19022349481));
#702 = CARTESIAN_POINT('',(0.510607238774,39.599074214771));
#703 = CARTESIAN_POINT('',(0.505505925457,40.420473265149));
#704 = CARTESIAN_POINT('',(0.503431044967,40.833024686144));
#705 = CARTESIAN_POINT('',(0.501853874082,41.245788790153));
#706 = CARTESIAN_POINT('',(0.500787872751,41.658778949805));
#707 = CARTESIAN_POINT('',(0.500248813442,42.072007623782));
#708 = CARTESIAN_POINT('',(0.500255281054,42.485486808589));
#709 = CARTESIAN_POINT('',(0.500829160648,42.899228162002));
#710 = CARTESIAN_POINT('',(0.503167426853,43.728804807686));
#711 = CARTESIAN_POINT('',(0.504936172322,44.144642023091));
#712 = CARTESIAN_POINT('',(0.507330152495,44.560767251679));
#713 = CARTESIAN_POINT('',(0.510374923662,44.977188388468));
#714 = CARTESIAN_POINT('',(0.514113516825,45.393922517365));
#715 = CARTESIAN_POINT('',(0.518580911175,45.810976592998));
#716 = CARTESIAN_POINT('',(0.523830828702,46.228366376808));
#717 = CARTESIAN_POINT('',(0.536079922602,47.068121423507));
#718 = CARTESIAN_POINT('',(0.543096706639,47.490493404618));
#719 = CARTESIAN_POINT('',(0.551035990393,47.913236224029));
#720 = CARTESIAN_POINT('',(0.559980305573,48.336368392059));
#721 = CARTESIAN_POINT('',(0.570009759446,48.75990402199));
#722 = CARTESIAN_POINT('',(0.581248829242,49.183866712775));
#723 = CARTESIAN_POINT('',(0.593831812969,49.608277061942));
#724 = CARTESIAN_POINT('',(0.615084282391,50.247758096194));
#725 = CARTESIAN_POINT('',(0.622608327359,50.462474137477));
#726 = CARTESIAN_POINT('',(0.630549098947,50.677314818345));
#727 = CARTESIAN_POINT('',(0.638934346822,50.892283825634));
#728 = CARTESIAN_POINT('',(0.647795735018,51.107385022856));
#729 = CARTESIAN_POINT('',(0.657169804391,51.322622478913));
#730 = CARTESIAN_POINT('',(0.667099219539,51.53800055944));
#731 = CARTESIAN_POINT('',(0.688408860465,51.9739468047));
#732 = CARTESIAN_POINT('',(0.699816993084,52.194521149474));
#733 = CARTESIAN_POINT('',(0.711912778251,52.415252765119));
#734 = CARTESIAN_POINT('',(0.724759702539,52.636146677022));
#735 = CARTESIAN_POINT('',(0.738431809102,52.857208473842));
#736 = CARTESIAN_POINT('',(0.753017703922,53.078443883622));
#737 = CARTESIAN_POINT('',(0.768626922746,53.299858319701));
#738 = CARTESIAN_POINT('',(0.785398163397,53.52145797806));
#739 = ( GEOMETRIC_REPRESENTATION_CONTEXT(2) 
PARAMETRIC_REPRESENTATION_CONTEXT() REPRESENTATION_CONTEXT('2D SPACE',''
  ) );
#740 = PCURVE('',#741,#796);
#741 = B_SPLINE_SURFACE_WITH_KNOTS('',3,1,(
    (#742,#743)
    ,(#744,#745)
    ,(#746,#747)
    ,(#748,#749)
    ,(#750,#751)
    ,(#752,#753)
    ,(#754,#755)
    ,(#756,#757)
    ,(#758,#759)
    ,(#760,#761)
    ,(#762,#763)
    ,(#764,#765)
    ,(#766,#767)
    ,(#768,#769)
    ,(#770,#771)
    ,(#772,#773)
    ,(#774,#775)
    ,(#776,#777)
    ,(#778,#779)
    ,(#780,#781)
    ,(#782,#783)
    ,(#784,#785)
    ,(#786,#787)
    ,(#788,#789)
    ,(#790,#791)
    ,(#792,#793)
    ,(#794,#795
    )),.UNSPECIFIED.,.F.,.F.,.F.,(4,1,1,1,1,1,1,1,1,1,1,1,1,1,1,1,1,1,1,
    1,1,1,1,1,4),(2,2),(0.,0.12855589223,0.512000805356,1.143707996614,
    2.012770144345,3.104200971558,4.399209368203,5.875538633081,
    7.507862334684,9.268227723906,11.126537571071,13.051061632999,
    15.008969526799,16.966877420598,18.891401482527,20.749711329692,
    22.510076718914,24.142400420516,25.618729685395,26.91373808204,
    28.005168909252,28.874231056983,29.505938248241,29.889383161367,
    30.017939053597),(0.,1.),.UNSPECIFIED.);
#742 = CARTESIAN_POINT('',(23.435782060396,-0.3,0.));
#743 = CARTESIAN_POINT('',(50.330170514849,14.,0.));
#744 = CARTESIAN_POINT('',(23.4785570981,-0.3,2.56650229578E-03));
#745 = CARTESIAN_POINT('',(50.334448018619,14.,2.566502295781E-04));
#746 = CARTESIAN_POINT('',(23.648920275553,-0.3,1.274456978811E-02));
#747 = CARTESIAN_POINT('',(50.351484336364,14.,1.274456978811E-03));
#748 = CARTESIAN_POINT('',(24.029500832431,-0.3,3.50927128961E-02));
#749 = CARTESIAN_POINT('',(50.389542392052,14.,3.509271289609E-03));
#750 = CARTESIAN_POINT('',(24.656565949632,-0.3,7.064375676982E-02));
#751 = CARTESIAN_POINT('',(50.452248903772,14.,7.064375676982E-03));
#752 = CARTESIAN_POINT('',(25.519391351335,-0.3,0.116975299939));
#753 = CARTESIAN_POINT('',(50.538531443943,14.,1.169752999386E-02));
#754 = CARTESIAN_POINT('',(26.603219743779,-0.3,0.170930268133));
#755 = CARTESIAN_POINT('',(50.646914283187,14.,1.709302681334E-02));
#756 = CARTESIAN_POINT('',(27.889512425342,-0.3,0.228831972062));
#757 = CARTESIAN_POINT('',(50.775543551343,14.,2.288319720624E-02));
#758 = CARTESIAN_POINT('',(29.356265591638,-0.3,0.286734599713));
#759 = CARTESIAN_POINT('',(50.922218867973,14.,2.867345997127E-02));
#760 = CARTESIAN_POINT('',(30.978386059452,-0.3,0.340692091579));
#761 = CARTESIAN_POINT('',(51.084430914754,14.,3.406920915791E-02));
#762 = CARTESIAN_POINT('',(32.728120098841,-0.3,0.387027082124));
#763 = CARTESIAN_POINT('',(51.259404318693,14.,3.870270821241E-02));
#764 = CARTESIAN_POINT('',(34.575528117548,-0.3,0.422581573441));
#765 = CARTESIAN_POINT('',(51.444145120564,14.,4.225815734411E-02));
#766 = CARTESIAN_POINT('',(36.488997107402,-0.3,0.444932240149));
#767 = CARTESIAN_POINT('',(51.635492019549,14.,4.449322401495E-02));
#768 = CARTESIAN_POINT('',(38.435782060396,-0.3,0.452555667975));
#769 = CARTESIAN_POINT('',(51.830170514849,14.,4.525556679752E-02));
#770 = CARTESIAN_POINT('',(40.38256701339,-0.3,0.444932240149));
#771 = CARTESIAN_POINT('',(52.024849010148,14.,4.449322401495E-02));
#772 = CARTESIAN_POINT('',(42.296036003245,-0.3,0.422581573441));
#773 = CARTESIAN_POINT('',(52.216195909134,14.,4.225815734411E-02));
#774 = CARTESIAN_POINT('',(44.143444021951,-0.3,0.387027082124));
#775 = CARTESIAN_POINT('',(52.400936711004,14.,3.870270821241E-02));
#776 = CARTESIAN_POINT('',(45.89317806134,-0.3,0.340692091579));
#777 = CARTESIAN_POINT('',(52.575910114943,14.,3.406920915791E-02));
#778 = CARTESIAN_POINT('',(47.515298529154,-0.3,0.286734599713));
#779 = CARTESIAN_POINT('',(52.738122161724,14.,2.867345997127E-02));
#780 = CARTESIAN_POINT('',(48.982051695451,-0.3,0.228831972062));
#781 = CARTESIAN_POINT('',(52.884797478354,14.,2.288319720624E-02));
#782 = CARTESIAN_POINT('',(50.268344377013,-0.3,0.170930268133));
#783 = CARTESIAN_POINT('',(53.01342674651,14.,1.709302681334E-02));
#784 = CARTESIAN_POINT('',(51.352172769457,-0.3,0.116975299939));
#785 = CARTESIAN_POINT('',(53.121809585755,14.,1.169752999386E-02));
#786 = CARTESIAN_POINT('',(52.21499817116,-0.3,7.064375676982E-02));
#787 = CARTESIAN_POINT('',(53.208092125925,14.,7.064375676982E-03));
#788 = CARTESIAN_POINT('',(52.842063288361,-0.3,3.50927128961E-02));
#789 = CARTESIAN_POINT('',(53.270798637645,14.,3.509271289609E-03));
#790 = CARTESIAN_POINT('',(53.222643845239,-0.3,1.274456978811E-02));
#791 = CARTESIAN_POINT('',(53.308856693333,14.,1.274456978811E-03));
#792 = CARTESIAN_POINT('',(53.393007022692,-0.3,2.56650229578E-03));
#793 = CARTESIAN_POINT('',(53.325893011078,14.,2.566502295781E-04));
#794 = CARTESIAN_POINT('',(53.435782060396,-0.3,0.));
#795 = CARTESIAN_POINT('',(53.330170514849,14.,0.));
#796 = DEFINITIONAL_REPRESENTATION('',(#797),#863);
#797 = B_SPLINE_CURVE_WITH_KNOTS('',8,(#798,#799,#800,#801,#802,#803,
    #804,#805,#806,#807,#808,#809,#810,#811,#812,#813,#814,#815,#816,
    #817,#818,#819,#820,#821,#822,#823,#824,#825,#826,#827,#828,#829,
    #830,#831,#832,#833,#834,#835,#836,#837,#838,#839,#840,#841,#842,
    #843,#844,#845,#846,#847,#848,#849,#850,#851,#852,#853,#854,#855,
    #856,#857,#858,#859,#860,#861,#862),.UNSPECIFIED.,.F.,.F.,(9,7,7,7,7
    ,7,7,7,7,9),(0.,0.123836665652,0.2458238613,0.367632725801,
    0.491956263753,0.617285391566,0.743082935062,0.870168324444,
    0.934354632278,1.),.UNSPECIFIED.);
#798 = CARTESIAN_POINT('',(0.,0.132019251097));
#799 = CARTESIAN_POINT('',(0.460748651408,0.132251103077));
#800 = CARTESIAN_POINT('',(0.922884839025,0.13241641132));
#801 = CARTESIAN_POINT('',(1.386254536702,0.132519176397));
#802 = CARTESIAN_POINT('',(1.850717470235,0.132563053261));
#803 = CARTESIAN_POINT('',(2.316145847997,0.132551389027));
#804 = CARTESIAN_POINT('',(2.782423091573,0.132487260743));
#805 = CARTESIAN_POINT('',(3.2494425664,0.132373513172));
#806 = CARTESIAN_POINT('',(4.177785615898,0.132054480217));
#807 = CARTESIAN_POINT('',(4.63908988719,0.131850568802));
#808 = CARTESIAN_POINT('',(5.10092545821,0.131603586707));
#809 = CARTESIAN_POINT('',(5.563206684333,0.13131584881));
#810 = CARTESIAN_POINT('',(6.02585523609,0.130989477593));
#811 = CARTESIAN_POINT('',(6.488799390881,0.130626420259));
#812 = CARTESIAN_POINT('',(6.951973324691,0.130228465857));
#813 = CARTESIAN_POINT('',(7.877982129009,0.129366689305));
#814 = CARTESIAN_POINT('',(8.340816611543,0.128902944093));
#815 = CARTESIAN_POINT('',(8.803759495079,0.128407662535));
#816 = CARTESIAN_POINT('',(9.266755757974,0.12788231365));
#817 = CARTESIAN_POINT('',(9.729755193484,0.127328207411));
#818 = CARTESIAN_POINT('',(10.192711889973,0.126746502453));
#819 = CARTESIAN_POINT('',(10.655583711131,0.126138213774));
#820 = CARTESIAN_POINT('',(11.590633007001,0.124857138689));
#821 = CARTESIAN_POINT('',(12.062805623395,0.12418324579));
#822 = CARTESIAN_POINT('',(12.534807901975,0.123483515255));
#823 = CARTESIAN_POINT('',(13.006602635966,0.122758668057));
#824 = CARTESIAN_POINT('',(13.47815575534,0.122009267229));
#825 = CARTESIAN_POINT('',(13.949435551319,0.121235746761));
#826 = CARTESIAN_POINT('',(14.420412505268,0.120438374824));
#827 = CARTESIAN_POINT('',(15.365513764594,0.118789285322));
#828 = CARTESIAN_POINT('',(15.839632727186,0.117937170862));
#829 = CARTESIAN_POINT('',(16.313388151988,0.117060916681));
#830 = CARTESIAN_POINT('',(16.786754327783,0.116160322809));
#831 = CARTESIAN_POINT('',(17.259706852271,0.115234999241));
#832 = CARTESIAN_POINT('',(17.732221823059,0.114284390004));
#833 = CARTESIAN_POINT('',(18.204275657255,0.113307702638));
#834 = CARTESIAN_POINT('',(19.14917790724,0.111296031207));
#835 = CARTESIAN_POINT('',(19.622022612368,0.110260818966));
#836 = CARTESIAN_POINT('',(20.094353611963,0.1091974683));
#837 = CARTESIAN_POINT('',(20.56615445232,0.108103131548));
#838 = CARTESIAN_POINT('',(21.037388791016,0.106978339289));
#839 = CARTESIAN_POINT('',(21.508041097874,0.105818927963));
#840 = CARTESIAN_POINT('',(21.97807696647,0.104623504031));
#841 = CARTESIAN_POINT('',(22.921660386508,0.102141451887));
#842 = CARTESIAN_POINT('',(23.395193713729,0.100854104392));
#843 = CARTESIAN_POINT('',(23.868035531825,9.952289988187E-02));
#844 = CARTESIAN_POINT('',(24.340143288354,9.814654012275E-02));
#845 = CARTESIAN_POINT('',(24.811485409944,9.67167769741E-02));
#846 = CARTESIAN_POINT('',(25.282003344444,9.523273080965E-02));
#847 = CARTESIAN_POINT('',(25.751647161797,9.368561620697E-02));
#848 = CARTESIAN_POINT('',(26.457070074263,9.125237569426E-02));
#849 = CARTESIAN_POINT('',(26.693552441958,9.041807588092E-02));
#850 = CARTESIAN_POINT('',(26.929785075525,8.956503850421E-02));
#851 = CARTESIAN_POINT('',(27.165758341856,8.869213588817E-02));
#852 = CARTESIAN_POINT('',(27.401461571088,8.779819072189E-02));
#853 = CARTESIAN_POINT('',(27.636882941787,8.688196897034E-02));
#854 = CARTESIAN_POINT('',(27.872009326852,8.594206400881E-02));
#855 = CARTESIAN_POINT('',(28.346980643218,8.398933501155E-02));
#856 = CARTESIAN_POINT('',(28.586810822888,8.297539905599E-02));
#857 = CARTESIAN_POINT('',(28.826301165732,8.193288886511E-02));
#858 = CARTESIAN_POINT('',(29.0654343293,8.086029989982E-02));
#859 = CARTESIAN_POINT('',(29.30418996208,7.975502951937E-02));
#860 = CARTESIAN_POINT('',(29.542544623621,7.86141337517E-02));
#861 = CARTESIAN_POINT('',(29.780471550463,7.743504978632E-02));
#862 = CARTESIAN_POINT('',(30.017939053597,7.621392433053E-02));
#863 = ( GEOMETRIC_REPRESENTATION_CONTEXT(2) 
PARAMETRIC_REPRESENTATION_CONTEXT() REPRESENTATION_CONTEXT('2D SPACE',''
  ) );
#864 = ADVANCED_FACE('',(#865),#476,.T.);
#865 = FACE_BOUND('',#866,.T.);
#866 = EDGE_LOOP('',(#867,#889,#890,#912));
#867 = ORIENTED_EDGE('',*,*,#868,.F.);
#868 = EDGE_CURVE('',#329,#869,#871,.T.);
#869 = VERTEX_POINT('',#870);
#870 = CARTESIAN_POINT('',(53.330170514849,14.,0.));
#871 = SURFACE_CURVE('',#872,(#875,#882),.PCURVE_S1.);
#872 = B_SPLINE_CURVE_WITH_KNOTS('',1,(#873,#874),.UNSPECIFIED.,.F.,.F.,
  (2,2),(0.,1.),.PIECEWISE_BEZIER_KNOTS.);
#873 = CARTESIAN_POINT('',(53.435782060396,-0.3,0.));
#874 = CARTESIAN_POINT('',(53.330170514849,14.,0.));
#875 = PCURVE('',#476,#876);
#876 = DEFINITIONAL_REPRESENTATION('',(#877),#881);
#877 = LINE('',#878,#879);
#878 = CARTESIAN_POINT('',(0.,0.));
#879 = VECTOR('',#880,1.);
#880 = DIRECTION('',(0.,1.));
#881 = ( GEOMETRIC_REPRESENTATION_CONTEXT(2) 
PARAMETRIC_REPRESENTATION_CONTEXT() REPRESENTATION_CONTEXT('2D SPACE',''
  ) );
#882 = PCURVE('',#741,#883);
#883 = DEFINITIONAL_REPRESENTATION('',(#884),#888);
#884 = LINE('',#885,#886);
#885 = CARTESIAN_POINT('',(30.017939053597,0.));
#886 = VECTOR('',#887,1.);
#887 = DIRECTION('',(0.,1.));
#888 = ( GEOMETRIC_REPRESENTATION_CONTEXT(2) 
PARAMETRIC_REPRESENTATION_CONTEXT() REPRESENTATION_CONTEXT('2D SPACE',''
  ) );
#889 = ORIENTED_EDGE('',*,*,#328,.T.);
#890 = ORIENTED_EDGE('',*,*,#891,.T.);
#891 = EDGE_CURVE('',#331,#892,#894,.T.);
#892 = VERTEX_POINT('',#893);
#893 = CARTESIAN_POINT('',(50.330170514849,14.,0.));
#894 = SURFACE_CURVE('',#895,(#898,#905),.PCURVE_S1.);
#895 = B_SPLINE_CURVE_WITH_KNOTS('',1,(#896,#897),.UNSPECIFIED.,.F.,.F.,
  (2,2),(0.,1.),.PIECEWISE_BEZIER_KNOTS.);
#896 = CARTESIAN_POINT('',(23.435782060396,-0.3,0.));
#897 = CARTESIAN_POINT('',(50.330170514849,14.,0.));
#898 = PCURVE('',#476,#899);
#899 = DEFINITIONAL_REPRESENTATION('',(#900),#904);
#900 = LINE('',#901,#902);
#901 = CARTESIAN_POINT('',(30.017939053597,0.));
#902 = VECTOR('',#903,1.);
#903 = DIRECTION('',(0.,1.));
#904 = ( GEOMETRIC_REPRESENTATION_CONTEXT(2) 
PARAMETRIC_REPRESENTATION_CONTEXT() REPRESENTATION_CONTEXT('2D SPACE',''
  ) );
#905 = PCURVE('',#741,#906);
#906 = DEFINITIONAL_REPRESENTATION('',(#907),#911);
#907 = LINE('',#908,#909);
#908 = CARTESIAN_POINT('',(0.,0.));
#909 = VECTOR('',#910,1.);
#910 = DIRECTION('',(0.,1.));
#911 = ( GEOMETRIC_REPRESENTATION_CONTEXT(2) 
PARAMETRIC_REPRESENTATION_CONTEXT() REPRESENTATION_CONTEXT('2D SPACE',''
  ) );
#912 = ORIENTED_EDGE('',*,*,#913,.F.);
#913 = EDGE_CURVE('',#869,#892,#914,.T.);
#914 = SURFACE_CURVE('',#915,(#943,#949),.PCURVE_S1.);
#915 = B_SPLINE_CURVE_WITH_KNOTS('',3,(#916,#917,#918,#919,#920,#921,
    #922,#923,#924,#925,#926,#927,#928,#929,#930,#931,#932,#933,#934,
    #935,#936,#937,#938,#939,#940,#941,#942),.UNSPECIFIED.,.F.,.F.,(4,1,
    1,1,1,1,1,1,1,1,1,1,1,1,1,1,1,1,1,1,1,1,1,1,4),(0.,
    1.285558922299E-02,5.120008053563E-02,0.114370799661,0.201277014435,
    0.310420097156,0.43992093682,0.587553863308,0.750786233468,
    0.926822772391,1.112653757107,1.3051061633,1.50089695268,
    1.69668774206,1.889140148253,2.074971132969,2.251007671891,
    2.414240042052,2.561872968539,2.691373808204,2.800516890925,
    2.887423105698,2.950593824824,2.988938316137,3.00179390536),
  .UNSPECIFIED.);
#916 = CARTESIAN_POINT('',(53.330170514849,14.,0.));
#917 = CARTESIAN_POINT('',(53.325893011078,14.,-2.566502295781E-04));
#918 = CARTESIAN_POINT('',(53.308856693333,14.,-1.274456978811E-03));
#919 = CARTESIAN_POINT('',(53.270798637645,14.,-3.509271289609E-03));
#920 = CARTESIAN_POINT('',(53.208092125925,14.,-7.064375676982E-03));
#921 = CARTESIAN_POINT('',(53.121809585755,14.,-1.169752999386E-02));
#922 = CARTESIAN_POINT('',(53.01342674651,14.,-1.709302681334E-02));
#923 = CARTESIAN_POINT('',(52.884797478354,14.,-2.288319720624E-02));
#924 = CARTESIAN_POINT('',(52.738122161724,14.,-2.867345997127E-02));
#925 = CARTESIAN_POINT('',(52.575910114943,14.,-3.406920915791E-02));
#926 = CARTESIAN_POINT('',(52.400936711004,14.,-3.870270821241E-02));
#927 = CARTESIAN_POINT('',(52.216195909134,14.,-4.225815734411E-02));
#928 = CARTESIAN_POINT('',(52.024849010148,14.,-4.449322401495E-02));
#929 = CARTESIAN_POINT('',(51.830170514849,14.,-4.525556679752E-02));
#930 = CARTESIAN_POINT('',(51.635492019549,14.,-4.449322401495E-02));
#931 = CARTESIAN_POINT('',(51.444145120564,14.,-4.225815734411E-02));
#932 = CARTESIAN_POINT('',(51.259404318693,14.,-3.870270821241E-02));
#933 = CARTESIAN_POINT('',(51.084430914754,14.,-3.406920915791E-02));
#934 = CARTESIAN_POINT('',(50.922218867973,14.,-2.867345997127E-02));
#935 = CARTESIAN_POINT('',(50.775543551343,14.,-2.288319720624E-02));
#936 = CARTESIAN_POINT('',(50.646914283187,14.,-1.709302681334E-02));
#937 = CARTESIAN_POINT('',(50.538531443943,14.,-1.169752999386E-02));
#938 = CARTESIAN_POINT('',(50.452248903772,14.,-7.064375676982E-03));
#939 = CARTESIAN_POINT('',(50.389542392052,14.,-3.509271289609E-03));
#940 = CARTESIAN_POINT('',(50.351484336364,14.,-1.274456978811E-03));
#941 = CARTESIAN_POINT('',(50.334448018619,14.,-2.566502295781E-04));
#942 = CARTESIAN_POINT('',(50.330170514849,14.,0.));
#943 = PCURVE('',#476,#944);
#944 = DEFINITIONAL_REPRESENTATION('',(#945),#948);
#945 = B_SPLINE_CURVE_WITH_KNOTS('',1,(#946,#947),.UNSPECIFIED.,.F.,.F.,
  (2,2),(0.,3.00179390536),.PIECEWISE_BEZIER_KNOTS.);
#946 = CARTESIAN_POINT('',(0.,1.));
#947 = CARTESIAN_POINT('',(30.017939053597,1.));
#948 = ( GEOMETRIC_REPRESENTATION_CONTEXT(2) 
PARAMETRIC_REPRESENTATION_CONTEXT() REPRESENTATION_CONTEXT('2D SPACE',''
  ) );
#949 = PCURVE('',#950,#955);
#950 = PLANE('',#951);
#951 = AXIS2_PLACEMENT_3D('',#952,#953,#954);
#952 = CARTESIAN_POINT('',(50.330170514849,14.,0.));
#953 = DIRECTION('',(0.,-1.,0.));
#954 = DIRECTION('',(1.,0.,0.));
#955 = DEFINITIONAL_REPRESENTATION('',(#956),#984);
#956 = B_SPLINE_CURVE_WITH_KNOTS('',3,(#957,#958,#959,#960,#961,#962,
    #963,#964,#965,#966,#967,#968,#969,#970,#971,#972,#973,#974,#975,
    #976,#977,#978,#979,#980,#981,#982,#983),.UNSPECIFIED.,.F.,.F.,(4,1,
    1,1,1,1,1,1,1,1,1,1,1,1,1,1,1,1,1,1,1,1,1,1,4),(0.,
    1.285558922299E-02,5.120008053563E-02,0.114370799661,0.201277014435,
    0.310420097156,0.43992093682,0.587553863308,0.750786233468,
    0.926822772391,1.112653757107,1.3051061633,1.50089695268,
    1.69668774206,1.889140148253,2.074971132969,2.251007671891,
    2.414240042052,2.561872968539,2.691373808204,2.800516890925,
    2.887423105698,2.950593824824,2.988938316137,3.00179390536),
  .UNSPECIFIED.);
#957 = CARTESIAN_POINT('',(3.,0.));
#958 = CARTESIAN_POINT('',(2.99572249623,-2.566502295781E-04));
#959 = CARTESIAN_POINT('',(2.978686178484,-1.274456978811E-03));
#960 = CARTESIAN_POINT('',(2.940628122797,-3.509271289609E-03));
#961 = CARTESIAN_POINT('',(2.877921611076,-7.064375676982E-03));
#962 = CARTESIAN_POINT('',(2.791639070906,-1.169752999386E-02));
#963 = CARTESIAN_POINT('',(2.683256231662,-1.709302681334E-02));
#964 = CARTESIAN_POINT('',(2.554626963505,-2.288319720624E-02));
#965 = CARTESIAN_POINT('',(2.407951646876,-2.867345997127E-02));
#966 = CARTESIAN_POINT('',(2.245739600094,-3.406920915791E-02));
#967 = CARTESIAN_POINT('',(2.070766196155,-3.870270821241E-02));
#968 = CARTESIAN_POINT('',(1.886025394285,-4.225815734411E-02));
#969 = CARTESIAN_POINT('',(1.694678495299,-4.449322401495E-02));
#970 = CARTESIAN_POINT('',(1.5,-4.525556679752E-02));
#971 = CARTESIAN_POINT('',(1.305321504701,-4.449322401495E-02));
#972 = CARTESIAN_POINT('',(1.113974605715,-4.225815734411E-02));
#973 = CARTESIAN_POINT('',(0.929233803845,-3.870270821241E-02));
#974 = CARTESIAN_POINT('',(0.754260399906,-3.406920915791E-02));
#975 = CARTESIAN_POINT('',(0.592048353124,-2.867345997127E-02));
#976 = CARTESIAN_POINT('',(0.445373036495,-2.288319720624E-02));
#977 = CARTESIAN_POINT('',(0.316743768338,-1.709302681334E-02));
#978 = CARTESIAN_POINT('',(0.208360929094,-1.169752999386E-02));
#979 = CARTESIAN_POINT('',(0.122078388924,-7.064375676982E-03));
#980 = CARTESIAN_POINT('',(5.93718772035E-02,-3.509271289609E-03));
#981 = CARTESIAN_POINT('',(2.131382151568E-02,-1.274456978811E-03));
#982 = CARTESIAN_POINT('',(4.277503770361E-03,-2.566502295781E-04));
#983 = CARTESIAN_POINT('',(0.,0.));
#984 = ( GEOMETRIC_REPRESENTATION_CONTEXT(2) 
PARAMETRIC_REPRESENTATION_CONTEXT() REPRESENTATION_CONTEXT('2D SPACE',''
  ) );
#985 = ADVANCED_FACE('',(#986),#741,.T.);
#986 = FACE_BOUND('',#987,.T.);
#987 = EDGE_LOOP('',(#988,#989,#990,#991));
#988 = ORIENTED_EDGE('',*,*,#891,.F.);
#989 = ORIENTED_EDGE('',*,*,#603,.T.);
#990 = ORIENTED_EDGE('',*,*,#868,.T.);
#991 = ORIENTED_EDGE('',*,*,#992,.F.);
#992 = EDGE_CURVE('',#892,#869,#993,.T.);
#993 = SURFACE_CURVE('',#994,(#1022,#1028),.PCURVE_S1.);
#994 = B_SPLINE_CURVE_WITH_KNOTS('',3,(#995,#996,#997,#998,#999,#1000,
    #1001,#1002,#1003,#1004,#1005,#1006,#1007,#1008,#1009,#1010,#1011,
    #1012,#1013,#1014,#1015,#1016,#1017,#1018,#1019,#1020,#1021),
  .UNSPECIFIED.,.F.,.F.,(4,1,1,1,1,1,1,1,1,1,1,1,1,1,1,1,1,1,1,1,1,1,1,1
    ,4),(0.,1.285558922299E-02,5.120008053563E-02,0.114370799661,
    0.201277014435,0.310420097156,0.43992093682,0.587553863308,
    0.750786233468,0.926822772391,1.112653757107,1.3051061633,
    1.50089695268,1.69668774206,1.889140148253,2.074971132969,
    2.251007671891,2.414240042052,2.561872968539,2.691373808204,
    2.800516890925,2.887423105698,2.950593824824,2.988938316137,
    3.00179390536),.UNSPECIFIED.);
#995 = CARTESIAN_POINT('',(50.330170514849,14.,0.));
#996 = CARTESIAN_POINT('',(50.334448018619,14.,2.566502295781E-04));
#997 = CARTESIAN_POINT('',(50.351484336364,14.,1.274456978811E-03));
#998 = CARTESIAN_POINT('',(50.389542392052,14.,3.509271289609E-03));
#999 = CARTESIAN_POINT('',(50.452248903772,14.,7.064375676982E-03));
#1000 = CARTESIAN_POINT('',(50.538531443943,14.,1.169752999386E-02));
#1001 = CARTESIAN_POINT('',(50.646914283187,14.,1.709302681334E-02));
#1002 = CARTESIAN_POINT('',(50.775543551343,14.,2.288319720624E-02));
#1003 = CARTESIAN_POINT('',(50.922218867973,14.,2.867345997127E-02));
#1004 = CARTESIAN_POINT('',(51.084430914754,14.,3.406920915791E-02));
#1005 = CARTESIAN_POINT('',(51.259404318693,14.,3.870270821241E-02));
#1006 = CARTESIAN_POINT('',(51.444145120564,14.,4.225815734411E-02));
#1007 = CARTESIAN_POINT('',(51.635492019549,14.,4.449322401495E-02));
#1008 = CARTESIAN_POINT('',(51.830170514849,14.,4.525556679752E-02));
#1009 = CARTESIAN_POINT('',(52.024849010148,14.,4.449322401495E-02));
#1010 = CARTESIAN_POINT('',(52.216195909134,14.,4.225815734411E-02));
#1011 = CARTESIAN_POINT('',(52.400936711004,14.,3.870270821241E-02));
#1012 = CARTESIAN_POINT('',(52.575910114943,14.,3.406920915791E-02));
#1013 = CARTESIAN_POINT('',(52.738122161724,14.,2.867345997127E-02));
#1014 = CARTESIAN_POINT('',(52.884797478354,14.,2.288319720624E-02));
#1015 = CARTESIAN_POINT('',(53.01342674651,14.,1.709302681334E-02));
#1016 = CARTESIAN_POINT('',(53.121809585755,14.,1.169752999386E-02));
#1017 = CARTESIAN_POINT('',(53.208092125925,14.,7.064375676982E-03));
#1018 = CARTESIAN_POINT('',(53.270798637645,14.,3.509271289609E-03));
#1019 = CARTESIAN_POINT('',(53.308856693333,14.,1.274456978811E-03));
#1020 = CARTESIAN_POINT('',(53.325893011078,14.,2.566502295781E-04));
#1021 = CARTESIAN_POINT('',(53.330170514849,14.,0.));
#1022 = PCURVE('',#741,#1023);
#1023 = DEFINITIONAL_REPRESENTATION('',(#1024),#1027);
#1024 = B_SPLINE_CURVE_WITH_KNOTS('',1,(#1025,#1026),.UNSPECIFIED.,.F.,
  .F.,(2,2),(0.,3.00179390536),.PIECEWISE_BEZIER_KNOTS.);
#1025 = CARTESIAN_POINT('',(0.,1.));
#1026 = CARTESIAN_POINT('',(30.017939053597,1.));
#1027 = ( GEOMETRIC_REPRESENTATION_CONTEXT(2) 
PARAMETRIC_REPRESENTATION_CONTEXT() REPRESENTATION_CONTEXT('2D SPACE',''
  ) );
#1028 = PCURVE('',#950,#1029);
#1029 = DEFINITIONAL_REPRESENTATION('',(#1030),#1058);
#1030 = B_SPLINE_CURVE_WITH_KNOTS('',3,(#1031,#1032,#1033,#1034,#1035,
    #1036,#1037,#1038,#1039,#1040,#1041,#1042,#1043,#1044,#1045,#1046,
    #1047,#1048,#1049,#1050,#1051,#1052,#1053,#1054,#1055,#1056,#1057),
  .UNSPECIFIED.,.F.,.F.,(4,1,1,1,1,1,1,1,1,1,1,1,1,1,1,1,1,1,1,1,1,1,1,1
    ,4),(0.,1.285558922299E-02,5.120008053563E-02,0.114370799661,
    0.201277014435,0.310420097156,0.43992093682,0.587553863308,
    0.750786233468,0.926822772391,1.112653757107,1.3051061633,
    1.50089695268,1.69668774206,1.889140148253,2.074971132969,
    2.251007671891,2.414240042052,2.561872968539,2.691373808204,
    2.800516890925,2.887423105698,2.950593824824,2.988938316137,
    3.00179390536),.UNSPECIFIED.);
#1031 = CARTESIAN_POINT('',(0.,0.));
#1032 = CARTESIAN_POINT('',(4.277503770375E-03,2.566502295781E-04));
#1033 = CARTESIAN_POINT('',(2.131382151565E-02,1.274456978811E-03));
#1034 = CARTESIAN_POINT('',(5.937187720351E-02,3.509271289609E-03));
#1035 = CARTESIAN_POINT('',(0.122078388924,7.064375676982E-03));
#1036 = CARTESIAN_POINT('',(0.208360929094,1.169752999386E-02));
#1037 = CARTESIAN_POINT('',(0.316743768338,1.709302681334E-02));
#1038 = CARTESIAN_POINT('',(0.445373036495,2.288319720624E-02));
#1039 = CARTESIAN_POINT('',(0.592048353124,2.867345997127E-02));
#1040 = CARTESIAN_POINT('',(0.754260399906,3.406920915791E-02));
#1041 = CARTESIAN_POINT('',(0.929233803845,3.870270821241E-02));
#1042 = CARTESIAN_POINT('',(1.113974605715,4.225815734411E-02));
#1043 = CARTESIAN_POINT('',(1.305321504701,4.449322401495E-02));
#1044 = CARTESIAN_POINT('',(1.5,4.525556679752E-02));
#1045 = CARTESIAN_POINT('',(1.694678495299,4.449322401495E-02));
#1046 = CARTESIAN_POINT('',(1.886025394285,4.225815734411E-02));
#1047 = CARTESIAN_POINT('',(2.070766196155,3.870270821241E-02));
#1048 = CARTESIAN_POINT('',(2.245739600094,3.406920915791E-02));
#1049 = CARTESIAN_POINT('',(2.407951646876,2.867345997127E-02));
#1050 = CARTESIAN_POINT('',(2.554626963505,2.288319720624E-02));
#1051 = CARTESIAN_POINT('',(2.683256231662,1.709302681334E-02));
#1052 = CARTESIAN_POINT('',(2.791639070906,1.169752999386E-02));
#1053 = CARTESIAN_POINT('',(2.877921611076,7.064375676982E-03));
#1054 = CARTESIAN_POINT('',(2.940628122796,3.509271289609E-03));
#1055 = CARTESIAN_POINT('',(2.978686178484,1.274456978811E-03));
#1056 = CARTESIAN_POINT('',(2.99572249623,2.566502295781E-04));
#1057 = CARTESIAN_POINT('',(3.,0.));
#1058 = ( GEOMETRIC_REPRESENTATION_CONTEXT(2) 
PARAMETRIC_REPRESENTATION_CONTEXT() REPRESENTATION_CONTEXT('2D SPACE',''
  ) );
#1059 = ADVANCED_FACE('',(#1060),#950,.F.);
#1060 = FACE_BOUND('',#1061,.T.);
#1061 = EDGE_LOOP('',(#1062,#1063));
#1062 = ORIENTED_EDGE('',*,*,#992,.T.);
#1063 = ORIENTED_EDGE('',*,*,#913,.T.);
#1064 = ( GEOMETRIC_REPRESENTATION_CONTEXT(3) 
GLOBAL_UNCERTAINTY_ASSIGNED_CONTEXT((#1068)) 
GLOBAL_UNIT_ASSIGNED_CONTEXT((#1065,#1066,#1067)) REPRESENTATION_CONTEXT
('Context #1','3D Context with UNIT and UNCERTAINTY') );
#1065 = ( LENGTH_UNIT() NAMED_UNIT(*) SI_UNIT(.MILLI.,.METRE.) );
#1066 = ( NAMED_UNIT(*) PLANE_ANGLE_UNIT() SI_UNIT($,.RADIAN.) );
#1067 = ( NAMED_UNIT(*) SI_UNIT($,.STERADIAN.) SOLID_ANGLE_UNIT() );
#1068 = UNCERTAINTY_MEASURE_WITH_UNIT(LENGTH_MEASURE(1.E-06),#1065,
  'distance_accuracy_value','confusion accuracy');
#1069 = PRODUCT_RELATED_PRODUCT_CATEGORY('part',$,(#7));
ENDSEC;
END-ISO-10303-21;
